<?xml version="1.0" encoding="utf-8"?>
<!-- Generator: Adobe Illustrator 19.2.0, SVG Export Plug-In . SVG Version: 6.00 Build 0)  -->
<svg version="1.1" id="s1480567634117" xmlns:svgjs="http://svgjs.com/svgjs"
	 xmlns="http://www.w3.org/2000/svg" xmlns:xlink="http://www.w3.org/1999/xlink" x="0px" y="0px" viewBox="0 0 400 200"
	 style="enable-background:new 0 0 400 200;" xml:space="preserve">
<style type="text/css">
	.st0{fill:none;stroke:#3A1330;stroke-width:2;stroke-miterlimit:10;}
	.st1{fill:#763754;}
	.st2{fill:#763754;stroke:#763754;stroke-miterlimit:10;}
	.st3{fill:none;}
	.st4{font-family:'ModernSans';}
	.st5{font-size:12px;}
</style>
<rect x="8.5" y="12.1" class="st0" width="384.1" height="176.2"/>
<rect x="14.2" y="17.8" class="st0" width="372.8" height="164.9"/>
<g>
	<path class="st1" d="M98.1,89.9c0,1.3-0.3,2.5-0.9,3.6c-0.6,1-1.4,1.9-2.4,2.6c-1.8,1.2-4.3,1.8-7.3,1.8h-2.4h-3.5V71.1h4.2h1.7
		c3,0,5.1,0.5,6.6,1.7c0.8,0.6,1.4,1.4,1.8,2.3c0.4,0.8,0.5,1.8,0.5,2.8c0,1.4-0.5,3.2-2.1,4.9c0.4,0.3,0.8,0.6,1.2,1
		c0.8,0.8,1.4,1.7,1.8,2.6C97.9,87.4,98.1,88.6,98.1,89.9z M85.7,74.8v8.1c0.8-0.2,1.8-0.5,2.7-0.9c1.3-0.5,2.4-1.2,3.1-1.9
		c0.8-0.7,1.1-1.5,1.1-2.3c0-1.3-0.5-1.8-0.9-2.1c-1-0.8-3-0.9-4.4-0.9C87.3,74.8,85.7,74.8,85.7,74.8z M94.3,89.9
		c0-1.4-0.5-2.5-1.4-3.4c-0.5-0.5-1.2-1-2.1-1.3c-0.4,0.1-0.7,0.3-1.1,0.5c-1.5,0.6-3,1-4.1,1.2v7.2h1.7c2.3,0,4.1-0.4,5.3-1.2
		C93.8,92.1,94.3,91.2,94.3,89.9z"/>
	<path class="st1" d="M118,97.8h-11.2h-4.1V71.1h4.2V94H118V97.8z"/>
	<path class="st1" d="M126.7,96.7c-1.6-0.7-3-1.7-4.2-2.9c-1.2-1.2-2.2-2.6-2.9-4.2c-0.7-1.6-1-3.4-1-5.2s0.4-3.6,1-5.2
		c0.7-1.6,1.7-3,2.9-4.2c1.2-1.2,2.6-2.2,4.2-2.8c1.6-0.7,3.4-1,5.2-1c1.8,0,3.6,0.4,5.2,1c1.6,0.7,3,1.6,4.2,2.8
		c1.2,1.3,2.2,2.7,2.8,4.2c0.7,1.7,1,3.4,1,5.2s-0.4,3.6-1,5.2c-0.7,1.6-1.6,3-2.8,4.2c-1.3,1.2-2.7,2.2-4.2,2.9
		c-1.7,0.7-3.4,1-5.2,1C130.1,97.8,128.3,97.4,126.7,96.7z M125.4,78c-1.7,1.7-2.7,4-2.7,6.5s1,4.8,2.7,6.5s4,2.7,6.5,2.7
		c2.4,0,4.8-1,6.5-2.7c1.7-1.7,2.7-4,2.7-6.5s-1-4.8-2.7-6.5c-1.7-1.7-4-2.7-6.5-2.7S127.1,76.2,125.4,78z"/>
	<path class="st1" d="M157.3,96.7c-1.6-0.7-3-1.7-4.2-2.9c-1.2-1.2-2.2-2.6-2.9-4.2s-1-3.4-1-5.2s0.4-3.6,1-5.2
		c0.7-1.6,1.7-3,2.9-4.2s2.6-2.2,4.2-2.8c1.6-0.7,3.4-1,5.2-1s3.6,0.4,5.2,1c1.6,0.7,3,1.6,4.2,2.8c1.2,1.3,2.2,2.7,2.8,4.2
		c0.7,1.7,1,3.4,1,5.2s-0.4,3.6-1,5.2c-0.7,1.6-1.6,3-2.8,4.2c-1.3,1.2-2.7,2.2-4.2,2.9c-1.7,0.7-3.4,1-5.2,1
		C160.7,97.8,158.9,97.4,157.3,96.7z M156,78c-1.7,1.7-2.7,4-2.7,6.5s1,4.8,2.7,6.5s4,2.7,6.5,2.7c2.4,0,4.8-1,6.5-2.7
		s2.7-4,2.7-6.5s-1-4.8-2.7-6.5s-4-2.7-6.5-2.7S157.7,76.2,156,78z"/>
	<path class="st1" d="M200.2,84.4c0,3.8-1.1,7-3.2,9.4c-1.2,1.3-2.6,2.3-4.3,3s-3.7,1-5.8,1H182h-1.4V71.1h4.2h2.2
		c2.2,0,4.1,0.3,5.8,1c1.7,0.6,3.1,1.7,4.3,3C199.1,77.4,200.2,80.7,200.2,84.4z M196,84.4c0-2.7-0.8-5-2.2-6.6
		c-1.6-1.8-3.9-2.6-7-2.6h-2.2v18.4h2.2c3.1,0,5.4-0.9,7-2.6C195.3,89.4,196,87.1,196,84.4z"/>
	<path class="st1" d="M208.4,71.1h4.4c3.5,0,5.6,1.4,6.7,2.6c1.4,1.6,2.2,3.7,2.2,6.2s-0.7,4.6-2.2,6.2c-1.1,1.2-3.1,2.7-6.7,2.7
		H209v9h-4.2V71.1H208.4z M217.8,79.9c0-1-0.2-2.6-1.2-3.6c-0.9-0.9-2.2-1.4-3.9-1.4H209V85h3.7c1.7,0,3-0.5,3.9-1.4
		C217.6,82.5,217.8,81,217.8,79.9z"/>
	<path class="st1" d="M237.3,92.1h-9.5l-2.3,5.7h-4.6l11.6-27.9l11.6,27.9h-4.6L237.3,92.1z M235.8,88.3l-3.2-8.1l-3.2,8.1H235.8z"
		/>
	<path class="st1" d="M265.6,95.6c-0.7,0.4-1.4,0.8-2.2,1.2c-1.7,0.7-3.4,1-5.2,1s-3.6-0.4-5.2-1c-1.6-0.7-3-1.7-4.2-2.9
		c-1.2-1.2-2.2-2.6-2.9-4.2s-1-3.4-1-5.2s0.4-3.6,1-5.2c0.7-1.6,1.7-3,2.9-4.2s2.6-2.2,4.2-2.8c1.6-0.7,3.4-1,5.2-1s3.6,0.3,5.2,1
		c0.2,0.1,0.4,0.2,0.6,0.3v4.9c-1.6-1.3-3.6-2.1-5.8-2.1c-2.4,0-4.8,0.9-6.5,2.7c-1.7,1.7-2.7,4-2.7,6.5s1,4.8,2.7,6.5
		s4,2.7,6.5,2.7c2.4,0,4.8-1,6.5-2.7c0.3-0.3,0.6-0.6,0.9-1V95.6z"/>
	<path class="st1" d="M287,74.8h-7.3v23h-4.2v-23h-7.3v-3.7H287V74.8z"/>
	<g>
		<path class="st2" d="M305.1,65.7l-0.3-0.1l-0.3,0.1c-5.1,2.5-14.4,12.9-14.4,21.1c0,7.1,5.1,13.2,12.1,14.5
			c0.9,0.2,1.8,0.2,2.7,0.2s1.8-0.1,2.7-0.2c7-1.3,12.1-7.4,12.1-14.5C319.6,78.6,310.2,68.2,305.1,65.7z M307.3,100
			c-1.6,0.3-3.3,0.3-4.9,0c-6.4-1.2-11-6.7-11-13.2c0-7.5,8.6-17.1,13.4-19.8c4.9,2.6,13.4,12.2,13.4,19.8
			C318.3,93.2,313.6,98.8,307.3,100z"/>
		<ellipse class="st1" cx="298.4" cy="85.1" rx="1.3" ry="1.9"/>
		<ellipse class="st1" cx="311.2" cy="85.1" rx="1.3" ry="1.9"/>
		<path class="st1" d="M311.2,89.3h-12.8c-0.4,0-0.8,0.2-1,0.5s-0.3,0.7-0.2,1.1c0.1,0.2,1.4,4.8,7.6,4.8s7.6-4.6,7.6-4.8
			c0.1-0.4,0-0.8-0.2-1.1C312,89.5,311.6,89.3,311.2,89.3z"/>
		<path class="st1" d="M313.4,81.4c0.1,0.2,0.3,0.3,0.6,0.3c0.1,0,0.2,0,0.3-0.1c0.3-0.2,0.4-0.6,0.3-0.9c-0.4-0.7-0.8-1.5-1.3-2.2
			c-0.2-0.3-0.6-0.4-0.9-0.2c-0.3,0.2-0.4,0.6-0.2,0.9C312.6,79.9,313,80.7,313.4,81.4z"/>
		<path class="st1" d="M306.1,70.4c-0.3-0.2-0.7-0.2-0.9,0.1c-0.2,0.3-0.2,0.7,0.1,0.9c1.7,1.4,3.3,3.1,4.8,5
			c0.1,0.2,0.3,0.2,0.5,0.2c0.1,0,0.3,0,0.4-0.1c0.3-0.2,0.3-0.6,0.1-0.9C309.5,73.6,307.8,71.8,306.1,70.4z"/>
	</g>
</g>
<rect x="103.8" y="104.8" class="st3" width="184.3" height="18.7"/>
<text transform="matrix(1 0 0 1 103.8314 113.7356)" class="st1 st4 st5">HEALTH COVER FOR DONORS</text>
</svg>
