<svg id="Demand" xmlns="http://www.w3.org/2000/svg" viewBox="0 0 691.15 300.64"><defs><style>.cls-1,.cls-2{fill:none;}.cls-1{stroke:#1b77aa;stroke-miterlimit:10;stroke-width:3px;}.cls-3{fill:#1b77aa;}</style></defs><title>demand</title><polyline class="cls-1" points="46.98 90.57 48.56 89.43 53.99 93.03 55.58 93.41 71.08 87.36 86.29 78.75 99 70.8 118.5 55.76 131.65 62.16 140.52 67.89 143.25 68.3 148.66 65.3 150.2 65.74 158.45 72.44 164.96 76.39 175.77 81.9 185.98 85.49 196.18 91.18 208.21 96.25 218.88 96.72 232.87 103.95 236.92 105.83 243.35 106.69 263.82 80.58 268.68 78.58 277.21 71.09 282.4 65.56 296.44 57.03 313.48 41.62 348.82 2.86 349.44 2.19 359.87 12.88 365.61 9.14 366.66 9.36 379.82 21.84 400.67 40.46 412.71 53.41 419.05 59.15 435.91 74.17 453.24 90.35 461.92 84.94 467.42 79.57 471.3 77.07 474.66 70.37 475.57 70.3 487.99 79.79 514.01 97.36 527.82 104.66 531.78 108 540.74 112.43 544.19 115.87 546.97 113.43 552 106.72 573.28 89.05 583.22 80.14 605.21 63.01 626.74 45.83 630.07 44.52 634 46.74 641.9 52.92"/><polygon class="cls-2" points="691.15 300.64 0 300.64 0 160.82 0 2.19 691.15 2.19 691.15 300.64"/><path class="cls-3" d="M592.67,69.44a14.92,14.92,0,0,1,2.22-.17,4.63,4.63,0,0,1,3.27,1,3.72,3.72,0,0,1,1.14,2.9,4.28,4.28,0,0,1-1.16,3.14,5,5,0,0,1-3.57,1.16,16.84,16.84,0,0,1-1.9-.1v-8Zm1,7.15a6.6,6.6,0,0,0,1.06.06,3.11,3.11,0,0,0,3.44-3.43c0-1.91-1.07-3.12-3.27-3.12a5.92,5.92,0,0,0-1.22.11v6.38Z" transform="translate(-1.12 -38.96)"/><path class="cls-3" d="M601.26,74.7a1.86,1.86,0,0,0,2,2,3.82,3.82,0,0,0,1.61-.3L605,77.17a4.7,4.7,0,0,1-1.93.36,2.7,2.7,0,0,1-2.85-2.93c0-1.75,1-3.13,2.72-3.13a2.46,2.46,0,0,1,2.4,2.73,4,4,0,0,1,0,.49h-4.08Zm3.09-.76a1.5,1.5,0,0,0-1.46-1.71,1.75,1.75,0,0,0-1.62,1.71h3.08Z" transform="translate(-1.12 -38.96)"/><path class="cls-3" d="M606.69,73.18c0-.6,0-1.09,0-1.57h0.92l0,0.94h0a2,2,0,0,1,1.82-1.07,1.72,1.72,0,0,1,1.64,1.16h0a2.38,2.38,0,0,1,.65-0.76,2,2,0,0,1,1.28-.41c0.77,0,1.91.5,1.91,2.52v3.42h-1V74.13c0-1.12-.41-1.79-1.26-1.79a1.37,1.37,0,0,0-1.25,1,1.74,1.74,0,0,0-.08.53v3.59h-1V73.93a1.33,1.33,0,0,0-1.21-1.6,1.57,1.57,0,0,0-1.39,1.57v3.5h-1V73.18Z" transform="translate(-1.12 -38.96)"/><path class="cls-3" d="M619.91,77.41l-0.08-.73h0a2.16,2.16,0,0,1-1.78.86,1.65,1.65,0,0,1-1.77-1.67c0-1.4,1.25-2.17,3.49-2.16V73.6a1.2,1.2,0,0,0-1.32-1.34,2.9,2.9,0,0,0-1.51.43l-0.24-.7a3.6,3.6,0,0,1,1.91-.52,2.06,2.06,0,0,1,2.21,2.37V76a8.25,8.25,0,0,0,.1,1.39h-1Zm-0.16-3c-1.15,0-2.46.18-2.46,1.31a0.93,0.93,0,0,0,1,1,1.44,1.44,0,0,0,1.4-1,1.1,1.1,0,0,0,.06-0.34v-1Z" transform="translate(-1.12 -38.96)"/><path class="cls-3" d="M622.48,73.18c0-.6,0-1.09,0-1.57h0.94l0.06,1h0a2.14,2.14,0,0,1,1.92-1.09c0.8,0,2.05.48,2.05,2.47v3.47h-1.05V74.07c0-.94-0.35-1.71-1.34-1.71a1.5,1.5,0,0,0-1.42,1.08,1.52,1.52,0,0,0-.07.49v3.49h-1.05V73.18Z" transform="translate(-1.12 -38.96)"/><path class="cls-3" d="M634.15,68.9v7c0,0.52,0,1.1,0,1.5h-0.95l0-1h0a2.15,2.15,0,0,1-2,1.14c-1.4,0-2.48-1.19-2.48-3,0-1.93,1.19-3.12,2.6-3.12a1.94,1.94,0,0,1,1.75.89h0V68.9h1.06ZM633.1,74a1.85,1.85,0,0,0,0-.44,1.55,1.55,0,0,0-1.52-1.22c-1.09,0-1.74,1-1.74,2.24s0.58,2.15,1.71,2.15A1.59,1.59,0,0,0,633,75.43a1.83,1.83,0,0,0,0-.46V74Z" transform="translate(-1.12 -38.96)"/></svg>