<svg id="Layer_7_Image" data-name="Layer 7 Image" xmlns="http://www.w3.org/2000/svg" viewBox="0 0 608.29 339.68"><defs><style>.cls-1{fill:#edbfe2;}.cls-2{fill:none;}</style></defs><title>mount7</title><path class="cls-1" d="M608,149.85c-2.68.75-5.38,1.44-8,2.25a27.72,27.72,0,0,0-7.47,3.63,19.14,19.14,0,0,1-6.94,3,2.28,2.28,0,0,1-1.09-.09c-2.07-.67-4.11-1.42-6.21-2a2.58,2.58,0,0,0-1.83.28q-3.25,2.14-6.35,4.47c-1.71,1.29-3.32,2.7-5,4-2,1.61-4.25,1.16-6.19.21-2.37-1.16-4.37-1-6.21.56-1.52,1.32-2.87,1-4.33,0-0.28-.19-0.61-0.31-0.91-0.47-2.9-1.64-3.59-1.29-6,.63-1.28,1-2.29,2.3-3.58,3.31-1.73,1.36-3.66,2.52-5.4,3.88-2.52,2-5,4-7.38,6.12a5.73,5.73,0,0,0-.94,1.82c-1.75-.33-3.52-0.67-5.3-1a13.69,13.69,0,0,0-2.38-.31c-2.14,0-4.28.07-6.42,0.15-2.37.09-4.45-.79-6.57-1.51a18.08,18.08,0,0,0-6.49-1.37,13.85,13.85,0,0,1-3.94-.85c-1.24-.35-2.44-0.8-3.64-1.23-3.84-1.37-7.72-2.66-11.5-4.16-2.3-.91-4.45-2.13-6.67-3.21a15.64,15.64,0,0,0-6.77-1.46c-1.25,0-2.5-.24-3.76-0.29a20.74,20.74,0,0,0-2.72.12c-5,.47-9-1.34-12.65-4.15-2.34-1.8-4.65-3.62-7.08-5.32a47.79,47.79,0,0,0-4.44-2.52,1.93,1.93,0,0,0-2.06.06c-1.29.75-2.66,1.41-4,2.1a1.5,1.5,0,0,1-1.84-.19c-1.83-1.77-4.25-2.33-6.75-2.79-1.72-.32-3.41-0.73-5.1-1.16s-2.5-.14-3.79,1a31.15,31.15,0,0,1-3.71,2.4q-2.53,1.68-5,3.44c-1.53,1.1-3,2.23-4.52,3.37a0.86,0.86,0,0,1-1.19,0c-1-.72-1.91-1.47-2.93-2.13-1.48-.95-3-1.82-4.53-2.72-0.61-.37-1-0.26-1.27.38a9.07,9.07,0,0,1-2.7,3.42A1.84,1.84,0,0,1,382,162a1.24,1.24,0,0,0-1.76.36c-1.87,1.94-3.83,3.81-5.81,5.66-1.72,1.61-3.42,3.25-5.31,4.69-1.18.9-2.75,1.39-4,2.2-2.57,1.64-5.07,3.36-7.58,5.06s-5.23,3.5-7.76,5.33c-3.27,2.36-6.55,4.74-9.67,7.26-2,1.61-3.7,3.5-5.55,5.25-0.79.75-1.65,1.44-2.45,2.19-1.41,1.31-2.77,2.67-4.22,4a1.54,1.54,0,0,1-1.19.08,34.68,34.68,0,0,1-9.88-5.43,54.45,54.45,0,0,1-5.92-4.62,26.87,26.87,0,0,0-6.51-4.54,4.54,4.54,0,0,0-2.18-.51,3.24,3.24,0,0,1-2.66-1,9.67,9.67,0,0,0-2-1.56,2.3,2.3,0,0,0-1.42-.19c-0.78.13-1.51,0.53-2.3,0.63-2.66.36-3.73-.41-4.83-2.11-0.82-1.26-.78-1.29-2.34-1a2.33,2.33,0,0,1-2.16-.45c-2.92-2.3-6-4.44-8.87-6.78a36,36,0,0,1-4-4.21c-1.08-1.22-1.1-1.22-2.5-.43-2.51,1.43-5.11,2.75-7.62,4.19a20.46,20.46,0,0,0-4.29,2.85,35.12,35.12,0,0,1-8.71,5.83,68.31,68.31,0,0,1-9.37,4.44c-3.06,1.06-3.45,1-5.72-1.41-1.46-1.55-2.65-3.33-5-4.07a2.16,2.16,0,0,1-.87-0.91,9.17,9.17,0,0,0-5.06-3.51,14.32,14.32,0,0,1-4.39-2.15,22.6,22.6,0,0,0-8.1-3.51,16.79,16.79,0,0,1-7.9-4.6c-1.48-1.45-2.83-3-4.34-4.44a3.15,3.15,0,0,0-2-.87c-1.54,0-2.41-.82-3.43-1.55-4.16-3-8.23-6.06-12.53-8.87-3-2-6.37-3.56-9.56-5.33-0.5-.28-1-0.6-1.45-0.89a0.62,0.62,0,0,0-.23.05c-2.52,2.34-5,4.72-7.57,7a18.81,18.81,0,0,1-3.67,2.65,4,4,0,0,1-2.4-.14,1.69,1.69,0,0,0-1.89.47q-3.66,3.51-7.49,6.87a4.86,4.86,0,0,1-3.69,1.31c-0.63-.05-1.27,0-1.9,0a7.32,7.32,0,0,0-4.08,1,25,25,0,0,1-3,1.33,6.69,6.69,0,0,1-1.48.11,2.65,2.65,0,0,0-1.19.24,1.05,1.05,0,0,1-1.32.07c-1-.56-2.06-1.07-3.06-1.65a1.26,1.26,0,0,0-1.73.2c-0.74.71-1.6,1.32-2.4,2a1.28,1.28,0,0,1-1.81,0,44.55,44.55,0,0,0-9.07-5.44,34.23,34.23,0,0,1-5.09-2.21,53.48,53.48,0,0,1-6.14-4.68,41.3,41.3,0,0,0-8.38-5.66c-3.58-1.8-7.28-3.41-11-4.95a21.91,21.91,0,0,0-4.18-.84l-1-.19H72.79c-2.87.81-5,2.63-7.18,4.33-1.65,1.28-3.11,1.68-5.12.7a14.46,14.46,0,0,0-3.53-.86,3.44,3.44,0,0,0-3.13,1.16,23.51,23.51,0,0,1-3.31,2.7,21.82,21.82,0,0,0-5.71,5.19,13.09,13.09,0,0,1-2.14,1.91c-1.72,1.41-3.09,3.11-5.19,4.2-0.93.49-1.38,1.74-2,2.68a20.71,20.71,0,0,0-1.67,2.82c-0.7,1.56-4.93,2.49-6.7,1.6a4.2,4.2,0,0,1-.8-0.73c-1.26-1.13-2.57-2.21-3.77-3.39s-2-2.17-2.95-3.29a2.14,2.14,0,0,0-2.36-.82,10.74,10.74,0,0,1-2,.27,3.31,3.31,0,0,1-2.54-.93,30,30,0,0,0-7.57-5.63c-1.23-.58-2.48-1.14-3.77-1.61a3.89,3.89,0,0,0-1.42.08V260.65H-0.25v79h608V268.29H608V149.85Z" transform="translate(0.25 0)"/><g id="dimensions"><polygon class="cls-2" points="608.29 339.62 0.3 339.62 0.3 180.51 0.3 0 608.29 0 608.29 339.62"/></g></svg>