<svg id="Layer_2_Image" data-name="Layer 2 Image" xmlns="http://www.w3.org/2000/svg" viewBox="0 0 608.1 339.62"><defs><style>.cls-1{fill:#36162f;}.cls-2{fill:none;}</style></defs><title>mount2</title><path class="cls-1" d="M608,211.88c-3,.17-6-0.37-9,0.16a5.8,5.8,0,0,0-4.07,2.23,0.91,0.91,0,0,1-1.12.37,12.31,12.31,0,0,1-3.52-1.19,14.92,14.92,0,0,0-8.38-2c-1.54.1-3.09,0-4.64,0a2.31,2.31,0,0,0-1.83.77,22.56,22.56,0,0,1-2.92,2.39,4.9,4.9,0,0,1-3.09,1c-1.33,0-2.67.13-4,.21a2.52,2.52,0,0,0-2.14,1.15,10.3,10.3,0,0,1-2.81,2.72,46.13,46.13,0,0,0-6.55,6.11,18.08,18.08,0,0,1-3.08-1.59,33,33,0,0,0-6.18-3.66c-2-1-4.12-1.9-5.37-3.75a3.7,3.7,0,0,0-1.46-1.17,24,24,0,0,1-3.95-2.62,27.18,27.18,0,0,0-5.43-3.38h-0.42a10.43,10.43,0,0,1-3,.76,16.47,16.47,0,0,0-3.89.74,16.07,16.07,0,0,0-3.88,2.5,1.26,1.26,0,0,1-1.31.34c-1.94-.78-4.07-0.6-6.09-1a28.55,28.55,0,0,1-4.29-.9,1.94,1.94,0,0,0-1.74.29,8.94,8.94,0,0,1-5.78,1.57,8.64,8.64,0,0,0-5.8,1.53,18.54,18.54,0,0,1-5.22,2.35,9.23,9.23,0,0,1-5.38-.29,3.48,3.48,0,0,0-3.18.23,32.68,32.68,0,0,1-10,3.83,2.9,2.9,0,0,1-2.14-.48c-2-1.21-4.07-2.29-6.12-3.42a1.71,1.71,0,0,0-1.66,0,25,25,0,0,1-5.84,1.79,2.31,2.31,0,0,1-1.67-.32,22.47,22.47,0,0,0-7.33-2.7,21.46,21.46,0,0,0-5.88,0,1.2,1.2,0,0,0-.7.35c-4.28,3.51-9.48,5.68-14.71,7.8a4.59,4.59,0,0,0-2.16,1.81,10.91,10.91,0,0,1-3.84,3.23,5.84,5.84,0,0,0-.95.58c-3.33,2.94-7.53,2.4-11.56,2-1.55-.14-3-1.13-4.5-1.74-2.76-1.14-5.54-2.24-8.26-3.46-0.81-.36-1.46-1-2.32-1.34-2.44-1-3.09-.83-4.8.76a6.84,6.84,0,0,1-1.35.87c-2,1.16-3.78,2.67-5.72,3.94a4.93,4.93,0,0,1-1,.62,6.29,6.29,0,0,0-4.08,3.74,1.4,1.4,0,0,1-.82.68,13.74,13.74,0,0,0-4.55,2.94,0.85,0.85,0,0,1-.85.18,29.93,29.93,0,0,0-7.57,0,1.67,1.67,0,0,0-1.65,1.2,4.06,4.06,0,0,1-2.72,3,3.56,3.56,0,0,0-2.6,3.54,4,4,0,0,1-.39,1.53,2.51,2.51,0,0,1-2.59,1.65c-2,0-4,0-6-.12a1.7,1.7,0,0,0-1.38.48,10.11,10.11,0,0,1-3.57,1.91,2.52,2.52,0,0,1-2.62-.31,2.32,2.32,0,0,0-2.91-.32,2,2,0,0,1-2.51-.26c-1.66-1.32-3.57-2.38-5.11-3.78-1.92,1-3.16.75-4.37-.75a1.69,1.69,0,0,0-1.76-.7,3.6,3.6,0,0,1-3.21-.93,25.2,25.2,0,0,0-7-4.26,22.2,22.2,0,0,1-3.51-2.35,3.29,3.29,0,0,0-3-.58,16.23,16.23,0,0,0-3.24,1.53c-1.64,1.11-3.41,2.06-5.13,3.07a23.35,23.35,0,0,0-5.19,4.17c-0.64-.14-1.39-0.27-2.11-0.48a22.78,22.78,0,0,0-7.74-.34,6.23,6.23,0,0,1-5.32-2.14c-1.27-1.5-2.73-1.69-4.57-1.37-2.55.44-5.1,0.9-7.68,1.17a11.1,11.1,0,0,0-4.36,1.53,3.82,3.82,0,0,1-3,.27,14.58,14.58,0,0,1-3.27-1.26,50.85,50.85,0,0,0-10.32-4.13,18,18,0,0,1-5.85-3,38.29,38.29,0,0,0-15.13-7.19,7.58,7.58,0,0,0-3.32.27,55.35,55.35,0,0,0-7.44,2.56,4.19,4.19,0,0,1-3.59,0A124.07,124.07,0,0,1,192,227c-2-1.24-4.37-1.63-6.68-2.17a17.28,17.28,0,0,0-4.76-.66,5.38,5.38,0,0,0-3.77,1.56,9.88,9.88,0,0,1-6.84,2.63c-1.16,0-2.25-.45-3.42-0.48a4,4,0,0,0-2.25.56,10.08,10.08,0,0,1-5.42,1.79,4.43,4.43,0,0,0-3.21,1.42,5.51,5.51,0,0,1-4.2,1.52c-2.28,0-4.57.15-6.84,0.32a1.23,1.23,0,0,1-1.28-.73,4.89,4.89,0,0,0-2.89-2.13,5.29,5.29,0,0,0-3.94.33c-1.51.72-3,1.51-4.46,2.28a1.54,1.54,0,0,1-1.42-.06c-2.18-.83-3.07-2.71-4.53-4.12-1.72-1.67-3.4-3.38-5-5.17a2.46,2.46,0,0,0-2.51-.94,3.79,3.79,0,0,1-2.87-.59,3.84,3.84,0,0,0-2.06-.64c-2.56,0-4.37-1.33-6.12-2.75a22.26,22.26,0,0,0-7.36-3.85,2.18,2.18,0,0,0-2,.34c-2.92,2-6.38,3.38-9.37,5.28-2.49,1.58-5.09,3-7.44,4.8a5.34,5.34,0,0,0-1.6,1.93c-0.25.51-.51,1-0.8,1.51a2.54,2.54,0,0,1-3.25,1.32c-2.69-.88-5.61-1.14-8.16-2.37a4.64,4.64,0,0,0-2-.41,39.93,39.93,0,0,0-6.92.54,14,14,0,0,1-9.16-1.77c-2.63-1.44-5.17-1.23-7.88-.75a2.89,2.89,0,0,0-1.84,1.13c-1.07,1.37-1.6,1.6-3.35,1a39.91,39.91,0,0,0-7.07-1.77,4.23,4.23,0,0,1-2-1.11c-0.94-.74-1.82-1.3-3.2-0.47a5.7,5.7,0,0,1-4.17.49,1,1,0,0,1-.86-0.45c-0.15-.79-0.91-1.34-1.07-2.08a1.91,1.91,0,0,0-1.56-1.41l-2-.64a3,3,0,0,0-2.87.28,5.38,5.38,0,0,1-1.65.72A2.36,2.36,0,0,1,9.84,221a7,7,0,0,0-7.41-2.67A8.43,8.43,0,0,0,0,220c0,20.35,0,119.61,0,119.61l608.07,0S608,237.45,608,211.88Z" transform="translate(0.03)"/><g id="dimensions"><polygon class="cls-2" points="608.03 339.62 0.03 339.62 0.03 180.51 0.03 0 608.03 0 608.03 339.62"/></g><text x="0.03"/></svg>