<svg id="Blue_Mountains" data-name="Blue Mountains" xmlns="http://www.w3.org/2000/svg" viewBox="0 0 608 339.64"><defs><style>.cls-1{fill:#9db1ce;}.cls-2{fill:#9cb1ce;}.cls-3{fill:#9db2ce;}.cls-4{fill:#9db2cf;}.cls-5{fill:#bfcfe5;}.cls-6{fill:none;}</style></defs><title>mount6</title><g id="Layer_6_Layer_6b_Image" data-name="Layer 6 + Layer 6b Image"><path class="cls-1" d="M44.13 174.08a47.79 47.79 0 0 1-.68 5.76c-.59 2.5-2.57 4.4-4 6.52s-2.67 4.38-4 6.59a1 1 0 0 0 .48 1.5 36.47 36.47 0 0 1 2.86 2.38c-2.41 1.83-4.56 3.61-6.88 5.2s-3.7 3.57-5.33 5.51a37.77 37.77 0 0 0-5.92 9c-.7 1.62-2.28 2.47-3.81 3.36s-3.21 1.8-4.69 2.84a52.13 52.13 0 0 0-4.52 3.64c-1.31 1.16-2.41 2.51-3.75 3.63-1.18 1-2.57 1.79-3.86 2.67Q0 217.37 0 202c.32-1.7 1.95-2.19 3.37-2.84.71-.33 1.56-.44 2.22-.83 5.34-3.09 11-5.78 15.93-9.4 2.62-1.9 5.61-3.38 8.33-5.18 1.91-1.26 3.61-2.77 5.45-4.13 2.56-1.89 5.16-3.75 7.73-5.62.41-.3.78-.47 1.1.08z"/><path class="cls-2" d="M106.42 147.85a39.68 39.68 0 0 0 2.48 3.62c1.27 1.49 2.72 2.86 4.09 4.28.42.44.4.78-.18 1.16a22.33 22.33 0 0 0-2.29 1.73 5.35 5.35 0 0 0-.74 1.19c1.53-.28 2.74-.55 4-.7a1.66 1.66 0 0 1 1.23.36 10.8 10.8 0 0 0 3.43 2.7c1.25.6 1.58 1.58.83 2.67a1.62 1.62 0 0 0 .18 2.14 6.8 6.8 0 0 1 .9 2.33 25.45 25.45 0 0 0 .39 2.66 2.74 2.74 0 0 0 1.35 1.49c1.74.73 2.76 2.1 4 3.24a7.91 7.91 0 0 1 1.35 1.55c.39.59.61 1.27.93 1.9a4.68 4.68 0 0 0 .8 1.3c1.22 1.16 2.54 2.24 3.76 3.4a17.72 17.72 0 0 1 4.17 5 2.32 2.32 0 0 0 1.57 1.4 1.54 1.54 0 0 1 .8.78 1.85 1.85 0 0 1-.64.61 3.83 3.83 0 0 1-2.89.91c-1-.08-2.09.6-3.09 1s-1.94 1-2.91 1.45l.09.32c1.35-.12 2.7-.26 4.06-.34a54.9 54.9 0 0 1 6-.24 4.08 4.08 0 0 1 3.49 1.86c.44.7 1.68 1.07 2.64 1.43a1 1 0 0 1 .74 1.54 2.18 2.18 0 0 0 0 1.69 13.63 13.63 0 0 0 4.3 4.52 47 47 0 0 1 4.56 3.75c.69.55 1.55.93 2.29 1.43a1.36 1.36 0 0 1 .58.76 9.37 9.37 0 0 0 2.64 5.22 4.21 4.21 0 0 1 1.62 3.51c-.2 1.8-.26 3.61-.35 5.42a.6.6 0 0 0 .21.48 2 2 0 0 1 .77 1.93c.08 1.43.26 2.86.4 4.29a.33.33 0 0 0 0 .18c1.52 1.49.9 3.32 1 5a2.32 2.32 0 0 0 .08.35c2.08.19 2.47 1.75 3.11 3 .72 1.45 1.2 3 1.89 4.45 1.18 2.48.78 5 .75 7.55l-.54.33a6.19 6.19 0 0 0-.36-.78c-.23-.35-.54-.66-.74-1a11.73 11.73 0 0 0-6-5 5.73 5.73 0 0 1-3.11-3 5 5 0 0 0-1.27-1.35q-2.69-2.51-5.39-5c-1.77-1.62-3.53-3.37-6.21-3.62a24.65 24.65 0 0 0-6 .12 32 32 0 0 1-8.89.08c-2.45-.3-4.88-.78-7.29-1.31a6.6 6.6 0 0 1-2.44-1.18 2 2 0 0 1-.68-1.47 4.08 4.08 0 0 0-2.24-3.79c-2.87-1.84-5.66-3.78-8.53-5.62-1.58-1-3.25-1.93-4.81-2.85.32-1 .64-1.92.87-2.83a1.25 1.25 0 0 0-1-1.7 60 60 0 0 1-6.11-2.53C99 211 97.88 210 96.62 209.2a116.8 116.8 0 0 0-11.26-6.39 56.33 56.33 0 0 1-7.14-4.42c-1.62-1.09-3.07-2.38-4.67-3.49s-3.59-2.13-5.18-3.41a43.86 43.86 0 0 1-6-5.51 33.17 33.17 0 0 0-10.21-7.67 24.2 24.2 0 0 1-2.3-1.54c2.25-.64 4.51-1.26 6.75-1.95 1.22-.37 2.41-.83 3.58-1.31 1.33-.55 2.59-1.26 4-1.74 3.95-1.4 7.28-3.74 10.92-5.61 3.16-1.62 6.43-3.08 9.44-4.9 3.65-2.21 7.08-4.7 10.59-7.09s6.69-4.62 10.12-7z"/><path class="cls-1" d="M552.26 139.37c-.55 1.5-.9 3.07-2.14 4.32a20.45 20.45 0 0 0-1.41 2c-.9 1.15-1.9 2.25-2.74 3.43s-1.37 2.21-2.21 3.59l3.61.15-1.07 1.55c-1.49 2.11-3 4.22-4.45 6.35-.28.4-.58.93.05 1.34.91.59.75 1.34.39 2.1a18.07 18.07 0 0 1-4.2 5.7c-1.36 1.26-2.77 2.48-4.11 3.76a.73.73 0 0 0 0 .77 6.62 6.62 0 0 0 1.16.85 6.28 6.28 0 0 1-1 .94 5.92 5.92 0 0 0-2.44 3c-1 2.29-2.33 4.5-3.51 6.74-.16.3-.31.61-.53 1.05l2.09.15-3.37 3a22.43 22.43 0 0 0 2.43 1.2c.81.28.75.69.35 1.14-1.18 1.36-2.31 2.76-3.61 4-2.88 2.79-5.85 5.5-8.77 8.26-.89.84-1.74 1.71-2.73 2.69l5.65.58a28.19 28.19 0 0 1-4.24 3.59h3.46l.09.29c-5.75 2.44-11.76 4.46-17.07 7.82.21-.32.4-.66.64-1q1-1.31 2.06-2.6a19.33 19.33 0 0 1 1.33-1.56c.86-.86.93-1.22 0-1.95-1.58-1.23-3.2-2.42-4.87-3.56a55.73 55.73 0 0 0-5.56-3.51 34.61 34.61 0 0 0-5.56-2.19 16 16 0 0 1-9.57-7.71c-.23-.42-.51-.82-.77-1.23.83-.63 2-1.11 2.45-1.92 2.53-4.41 6.8-7.27 11-10.25 3-2.15 6.05-4.26 9-6.46a61.8 61.8 0 0 0 5.43-4.42c4.88-4.58 11-7.69 16.43-11.7 3.1-2.31 6.56-4.27 9.4-6.79 4.4-3.93 9.55-7 14.34-10.43 1.45-1.08 3.03-2.06 4.57-3.08z"/><path class="cls-3" d="M419.28 158.61a15.27 15.27 0 0 0-.14 3.4 4.11 4.11 0 0 1-.72 3.49c-1 1.27-1 2.75-1.29 4.17a7.72 7.72 0 0 1-.52 1.38c-.35.8-.8 1.57-1.08 2.38a18.12 18.12 0 0 0-.71 2.73c-.38 2.12-.64 4.25-1.07 6.36-.34 1.68-.86 3.34-1.31 5a5 5 0 0 1-.79 1.72 8.36 8.36 0 0 1-.74-2.51c0-1.6-1.08-2.53-2.09-3.53-1.86-1.87-3.79-3.68-5.69-5.52-1.16-1.12-2.34-2.22-3.5-3.34a1.23 1.23 0 0 1-.19-.42c.42-.17.85-.32 1.26-.51.68-.32 1.32-.72 2-1a19.93 19.93 0 0 0 7.86-5.22 7.93 7.93 0 0 1 2.89-2.09 5.9 5.9 0 0 0 3.68-3.93 23.22 23.22 0 0 1 1.31-2.55c.26-.36.56-.51.84-.01zM193.84 179.54c.1 1.18-.13 2.37 1.12 3.33a5.7 5.7 0 0 1 1.41 2.25c.89 2 1.7 4 2.54 6a1.27 1.27 0 0 1 .15.45v8.22a3.52 3.52 0 0 1-2-1.95 25.87 25.87 0 0 1-1.3-4.14 10.49 10.49 0 0 0-3.15-5.68c-1.12-1.11-1.94-2.45-3-3.6a15.88 15.88 0 0 0-2.72-2.41 8.19 8.19 0 0 1-2.79-3c1.81.06 3.62.1 5.43.17 1.32 0 2.64.12 4 .19a1 1 0 0 1 .31.17z"/><path class="cls-4" d="M131.72 154.68c.36.7.67 1.43 1.1 2.1a16.61 16.61 0 0 1 2 4.49 30.69 30.69 0 0 0 2.56 5.11c.07.13.15.25.22.38l-.25.19a15 15 0 0 1-1.88-2 7.52 7.52 0 0 0-3-2.24 1.64 1.64 0 0 1-.73-.5c-.6-1.38-2-2-3.21-2.83a8.49 8.49 0 0 0-1.37-.64c-1.05-.5-2.33-.78-2.58-2.08a4 4 0 0 0 4-.35c1.02-.55 2.09-1.07 3.14-1.63zM322.56 110.55c1.12 2.52 1.59 5.3 3.87 7.36a2.22 2.22 0 0 1 .31 1.75 15.54 15.54 0 0 1-.71 2.41h-.31c-.21-.62-.45-1.23-.6-1.86a2 2 0 0 0-1-1.59 18.71 18.71 0 0 1-2.15-1.64 11.81 11.81 0 0 0-1.4-.74 2.55 2.55 0 0 1-.62-.34c-.82-.81-1.61-1.65-2.42-2.47 1.24-.75 2.48-1.5 3.73-2.24.41-.19.86-.41 1.3-.64z"/><path class="cls-1" d="M552.48 139.17l-.22.21z"/><path class="cls-4" d="M124.57 156.73l-.22-.22z"/><path class="cls-5" d="M312.66 155.6l-.09.08h.07zM367.12 212.18v.08-.08zM367.12 212.18zM552.25 139.38l.01-.01-.01.01z"/><path class="cls-5" d="M607 166.9c-1.71-.74-3.51-1.35-5.13-2.23-4-2.16-7.9-4.47-11.87-6.67-2-1.13-4.16-2.17-6.28-3.19-2-.94-4-1.8-6-2.68-.9-.4-1.84-.73-2.73-1.13-1.06-.48-2.1-1-3.12-1.5a15.65 15.65 0 0 1-2.47-1.36c-1.31-1-2.49-2.15-3.77-3.19-.72-.58-1.55-1.06-2.31-1.6-2.1-1.47-4.17-3-6.32-4.4a3.88 3.88 0 0 0-4.49.2l-.22.21c-.55 1.5-.9 3.06-2.14 4.31a20.45 20.45 0 0 0-1.41 2c-.9 1.15-1.9 2.25-2.74 3.43s-1.37 2.21-2.21 3.59l3.61.15-1.07 1.55c-1.49 2.11-3 4.22-4.45 6.35-.28.4-.58.93.05 1.34.91.59.75 1.34.39 2.1a18.07 18.07 0 0 1-4.2 5.7c-1.36 1.26-2.77 2.48-4.11 3.76a.73.73 0 0 0 0 .77 6.62 6.62 0 0 0 1.16.85 6.28 6.28 0 0 1-1 .94 5.92 5.92 0 0 0-2.44 3c-1 2.29-2.33 4.5-3.51 6.74-.16.3-.31.61-.53 1.05l2.09.15-3.37 3a22.42 22.42 0 0 0 2.43 1.2c.81.28.75.69.35 1.14-1.18 1.36-2.31 2.76-3.61 4-2.88 2.79-5.85 5.5-8.77 8.26-.89.84-1.74 1.71-2.73 2.69l5.65.58a28.19 28.19 0 0 1-4.24 3.59h3.46l.09.29c-5.75 2.44-11.76 4.46-17.07 7.82.21-.32.4-.66.64-1q1-1.31 2.06-2.6a19.34 19.34 0 0 1 1.33-1.56c.86-.86.93-1.22 0-1.95-1.58-1.23-3.2-2.42-4.87-3.56a55.74 55.74 0 0 0-5.56-3.51 34.61 34.61 0 0 0-5.56-2.19 16 16 0 0 1-9.57-7.71c-.23-.42-.51-.82-.77-1.23a1.21 1.21 0 0 0-.14-.35c-1.62-2-3.93-3-6.46-3.81a20.46 20.46 0 0 1-4.33-2c-1.88-1.14-3.19-3-5.54-3.54a8.19 8.19 0 0 1-1.53-.75l-7.08-3.44a13.83 13.83 0 0 1-1.47-.63c-1.25-.8-2.41-1.71-3.68-2.48-2.44-1.48-4.94-2.88-7.41-4.32-3.72-2.18-7.5-4.29-11.14-6.58-2.66-1.68-5.11-3.61-7.69-5.4-1.26-.87-2.59-1.66-3.89-2.48a15.26 15.26 0 0 0-.14 3.4 4.11 4.11 0 0 1-.72 3.49c-1 1.27-1 2.75-1.29 4.17a7.73 7.73 0 0 1-.52 1.38c-.35.8-.8 1.57-1.08 2.38a18.12 18.12 0 0 0-.71 2.73c-.38 2.12-.64 4.25-1.07 6.36-.34 1.68-.86 3.34-1.31 5a5 5 0 0 1-.79 1.72 8.35 8.35 0 0 1-.74-2.51c0-1.6-1.08-2.53-2.09-3.53-1.86-1.87-3.79-3.68-5.69-5.52-1.16-1.12-2.34-2.22-3.5-3.34a1.23 1.23 0 0 1-.19-.42c-1.62-1.17-3.34-2.25-4.85-3.53-2.8-2.38-5.46-4.9-8.23-7.31-1.27-1.11-2.68-2.09-4-3.15-.93-.75-1.84-1.53-2.74-2.31a61.28 61.28 0 0 0-5.92-5c-2.85-1.89-5.79-3.63-8.05-6.12a2.39 2.39 0 0 0-.5-.34 38.65 38.65 0 0 1-7-6.23 102.39 102.39 0 0 0-7.61-7.26c-3.25-2.76-6.73-5.3-10.12-7.93-2-1.56-4-3.1-6-4.69-1.75-1.4-3.49-2.81-5.19-4.26-1.94-1.66-3.82-3.39-5.76-5.06a2.21 2.21 0 0 0-.92-.17c1.12 2.52 1.59 5.3 3.87 7.36a2.22 2.22 0 0 1 .31 1.75 15.55 15.55 0 0 1-.71 2.41h-.31c-.2-.62-.45-1.23-.6-1.86a2 2 0 0 0-1-1.59 18.71 18.71 0 0 1-2.15-1.64 11.8 11.8 0 0 0-1.4-.74 2.55 2.55 0 0 1-.62-.34c-.82-.81-1.61-1.65-2.42-2.47-1-.95-1.88-1.94-2.9-2.83-1.35-1.17-2.82-2.23-4.18-3.4-.75-.64-1.36-1.4-2.1-2.17l-.54.53c1.2 1.57 2.53 3.08 3.56 4.74A62.87 62.87 0 0 1 315 117a24.88 24.88 0 0 1 1 3.9c.41 1.45 1 2.88 1.27 4.35a17.39 17.39 0 0 1 .21 3.74 1.52 1.52 0 0 0 1.33 1.67 4.11 4.11 0 0 1 2.85 2.39 12.94 12.94 0 0 0 2.46 2.85 1.85 1.85 0 0 1 .33 2.4 45.57 45.57 0 0 1-5.78 8.92c-2.17 2.57-4 5.38-5.94 8.08a.75.75 0 0 0-.07.27c1.11-.59 2.22-1.17 3.31-1.78 2.41-1.34 4.77-2.75 7.24-4a2.74 2.74 0 0 1 2.16 0c1.82 1.09 3.7 2.21 4.48 4.21a.92.92 0 0 0 .42.52 3.12 3.12 0 0 1 2 2.68 2.26 2.26 0 0 0 1.46 1.56 17.63 17.63 0 0 0 4.34 2 .82.82 0 0 1 .49.33 14.63 14.63 0 0 1 1.55 2.81 2.69 2.69 0 0 1-.39 1.93 66.28 66.28 0 0 0-5.24 11.55v.07c3.06-1.74 6.17-3.53 9.32-5.26a1.72 1.72 0 0 1 1.23.08 16.51 16.51 0 0 1 2.36 1.23c1 .66 1.84 1.45 1.62 2.74a5.77 5.77 0 0 0 .07 1.31 2.14 2.14 0 0 0 2 2.13 1.73 1.73 0 0 1 1.18 1c.29 1.9 1.7 3 3.24 4.1a34.45 34.45 0 0 0 3.07 2.27 33.85 33.85 0 0 0 4.66 2.1 4.14 4.14 0 0 1 2.68 2.33 16.23 16.23 0 0 0 4 5.45c.8.77 1.23 1.88 2.11 2.54a36.84 36.84 0 0 0 4.46 2.61c1 .53 1.13 1 .28 1.66-2.15 1.75-4.4 3.4-6.51 5.18-1.14 1-2.08 2.09-3.11 3.15 2.25-.85 4.56-1.59 6.74-2.56 3.48-1.56 4.18-.9 6.6.87a20.2 20.2 0 0 1 5.19 5.75c.69 1.11 1.42 2.21 2 3.35a1.28 1.28 0 0 1 0 1.09c-1.09 2.05-.5 3.75 1.26 5.24a6.07 6.07 0 0 1 2.26 3.31 1.06 1.06 0 0 0 .29.59 1 1 0 0 1 .11 1.71 4.68 4.68 0 0 1-1.74.51 3.25 3.25 0 0 1-.78-.09 16.19 16.19 0 0 1 .78 1.48 15.14 15.14 0 0 0 2.61 3.83 2.33 2.33 0 0 1 .24 2.09c-.7 1.64-.28 2.8 1.11 4a14.54 14.54 0 0 1 3 3.67 44.06 44.06 0 0 1 2 4.7 1.12 1.12 0 0 0 .65.62c2 .38 2.9 1.76 3.53 3.3a13.81 13.81 0 0 0 4.26 5.49 26.48 26.48 0 0 1 2.44 2.79c.92 1 1.92 2 2.87 2.95.52.55 1 1.13 1.5 1.7h-87.89c-1.69-1.67-3.34-3.38-5.09-5-2.58-2.38-5.22-4.72-7.87-7-2.24-1.95-4.61-3.77-6.79-5.76-1.39-1.27-2.51-2.77-3.84-4.1a7.93 7.93 0 0 0-1.56-.76 12.47 12.47 0 0 1-1.8-1.23 22.19 22.19 0 0 0-2.58-2.33 8.43 8.43 0 0 0-3-.92c-2.36-.39-4.76-.62-7.12-1a2.8 2.8 0 0 1-1.28-.87c-1.49-1.45-2.93-2.94-4.42-4.4a2.41 2.41 0 0 0-.93-.59 1.84 1.84 0 0 0-1.05 0c-.34.94-1.18.56-1.84.62-1.32.12-2.64.3-4 .3a4.29 4.29 0 0 1-2.19-.47c-2.07-1.33-4.05-2.78-6-4.2a12.15 12.15 0 0 1-1.18-1.11c-.22 1-.46 1.74-.57 2.53s-.45.78-1.07.54a3.31 3.31 0 0 1-.77-.29c-2-1.49-4.41-2.5-6.21-4.28a43.88 43.88 0 0 0-4.81-3.62c-2.53-1.88-5-3.79-7.58-5.64-1.41-1-2.91-1.93-4.35-2.92a4.85 4.85 0 0 1-1.08-1 7.56 7.56 0 0 0-3.58-2.58 8.62 8.62 0 0 0-.1 4.32 11.33 11.33 0 0 0 2.27 5.38c1 1.18 2 2.4 2.92 3.66a18.51 18.51 0 0 1 1.39 2.51 3.2 3.2 0 0 1 .18.86l-.27.12c-1.75-1.94-3.42-3.93-5.27-5.79-1.57-1.59-3.31-3-5-4.51a1 1 0 0 1-.48-1.17 22.48 22.48 0 0 0 .25-3.46 1.32 1.32 0 0 0-.45-.8 31.65 31.65 0 0 0-4.12-4c-3-2.06-3.43-5-4-8-.36-1.74-.4-3.53-.68-5.29a5.47 5.47 0 0 0-.71-1.54c-1.05-2-2.14-4-3.16-6a11.11 11.11 0 0 1-.57-1.89 2 2 0 0 1-.72.32c-2.84-.07-5.65-.27-8.15-1.71-.52-.3-1.16-.43-1.71-.71-2-1-4-2.07-6-3-1.73-.81-3.54-1.49-5.31-2.23.1 1.18-.13 2.37 1.12 3.33a5.7 5.7 0 0 1 1.41 2.25c.89 2 1.7 4 2.54 6a1.27 1.27 0 0 1 .15.45v8.22a3.52 3.52 0 0 1-2-1.95 25.87 25.87 0 0 1-1.3-4.14 10.49 10.49 0 0 0-3.15-5.68c-1.12-1.11-1.94-2.45-3-3.6a15.88 15.88 0 0 0-2.72-2.41 8.19 8.19 0 0 1-2.79-3 55.37 55.37 0 0 0-6.4-2.41 39.93 39.93 0 0 1-7-2.92c-2.1-1-4.06-2.17-6.16-3.12a31.79 31.79 0 0 0-3.45-.93c-1.86-.59-3.7-1.24-5.53-1.9-1.41-.51-2.84-1-4.19-1.65-2.33-1.1-4.57-2.35-6.91-3.45a35.69 35.69 0 0 1-6.69-4.15c-1.53-1.19-3.1-2.33-4.7-3.44a4.3 4.3 0 0 0-1.36-.35c.36.7.67 1.43 1.1 2.1a16.61 16.61 0 0 1 2 4.49 30.69 30.69 0 0 0 2.56 5.11c.07.13.15.25.22.38l-.25.19a15 15 0 0 1-1.88-2 7.52 7.52 0 0 0-3-2.24 1.64 1.64 0 0 1-.73-.5c-.6-1.38-2-2-3.21-2.83a8.48 8.48 0 0 0-1.37-.64c-1-.5-2.32-.78-2.58-2.07l-.22-.22c-2.52-1.44-5-2.9-7.58-4.29-1-.53-2.08-.88-3.12-1.31l-7.23-3.05a39.68 39.68 0 0 0 2.48 3.62c1.27 1.49 2.72 2.86 4.09 4.28.42.44.4.78-.18 1.16a22.33 22.33 0 0 0-2.29 1.73 5.35 5.35 0 0 0-.74 1.19c1.53-.28 2.74-.55 4-.7a1.66 1.66 0 0 1 1.23.36 10.8 10.8 0 0 0 3.43 2.7c1.25.6 1.58 1.58.83 2.67a1.62 1.62 0 0 0 .18 2.14 6.8 6.8 0 0 1 .9 2.33 25.45 25.45 0 0 0 .39 2.66 2.74 2.74 0 0 0 1.35 1.49c1.74.73 2.76 2.1 4 3.24a7.91 7.91 0 0 1 1.35 1.55c.39.59.61 1.27.93 1.9a4.68 4.68 0 0 0 .8 1.3c1.22 1.16 2.54 2.24 3.76 3.4a17.72 17.72 0 0 1 4.17 5 2.32 2.32 0 0 0 1.57 1.4 1.54 1.54 0 0 1 .8.78 1.85 1.85 0 0 1-.64.61 3.83 3.83 0 0 1-2.89.91c-1-.08-2.09.6-3.09 1s-1.94 1-2.91 1.45l.09.31c1.35-.12 2.7-.26 4.06-.34a54.9 54.9 0 0 1 6-.24 4.08 4.08 0 0 1 3.49 1.86c.44.7 1.68 1.07 2.64 1.43a1 1 0 0 1 .74 1.54 2.18 2.18 0 0 0 0 1.69 13.63 13.63 0 0 0 4.3 4.52 47 47 0 0 1 4.56 3.75c.69.55 1.55.93 2.29 1.43a1.36 1.36 0 0 1 .58.76 9.37 9.37 0 0 0 2.64 5.22 4.21 4.21 0 0 1 1.62 3.51c-.2 1.8-.26 3.61-.35 5.42a.6.6 0 0 0 .21.48 2 2 0 0 1 .77 1.93c.08 1.43.26 2.86.4 4.29a.33.33 0 0 0 0 .18c1.52 1.49.9 3.32 1 5a2.31 2.31 0 0 0 .08.35c2.08.19 2.47 1.75 3.11 3 .72 1.45 1.2 3 1.89 4.45 1.18 2.48.78 5 .75 7.55l-.54.33a6.19 6.19 0 0 0-.36-.78c-.23-.35-.54-.66-.74-1a11.73 11.73 0 0 0-6-5 5.73 5.73 0 0 1-3.11-3 5 5 0 0 0-1.27-1.35q-2.69-2.51-5.39-5c-1.77-1.62-3.53-3.37-6.21-3.62a24.65 24.65 0 0 0-6 .12 32 32 0 0 1-8.89.08c-2.45-.3-4.88-.78-7.29-1.31a6.6 6.6 0 0 1-2.44-1.18 2 2 0 0 1-.68-1.47 4.08 4.08 0 0 0-2.24-3.79c-2.87-1.84-5.66-3.78-8.53-5.62-1.58-1-3.25-1.93-4.81-2.85.32-1 .64-1.92.87-2.83a1.25 1.25 0 0 0-1-1.7 60 60 0 0 1-6.11-2.53C99 211 97.88 210 96.62 209.2a116.8 116.8 0 0 0-11.26-6.39 56.33 56.33 0 0 1-7.14-4.42c-1.62-1.09-3.07-2.38-4.67-3.49s-3.59-2.13-5.18-3.41a43.86 43.86 0 0 1-6-5.51 33.17 33.17 0 0 0-10.21-7.67 24.19 24.19 0 0 1-2.3-1.54 5.43 5.43 0 0 1-1.4-.3c-1.47-.76-2.89-1.59-4.33-2.4a47.79 47.79 0 0 1-.68 5.76c-.59 2.5-2.57 4.4-4 6.52s-2.67 4.38-4 6.59a1 1 0 0 0 .48 1.5 36.47 36.47 0 0 1 2.86 2.38c-2.41 1.83-4.56 3.61-6.88 5.2s-3.7 3.57-5.33 5.51a37.77 37.77 0 0 0-5.92 9c-.7 1.62-2.28 2.47-3.81 3.36s-3.21 1.8-4.69 2.84a52.13 52.13 0 0 0-4.52 3.64c-1.31 1.16-2.41 2.51-3.75 3.63-1.18 1-2.57 1.79-3.86 2.67V339.57h607.76v-71h.21V167.48a11.73 11.73 0 0 0-1-.58zM124.56 156.72l.01.01-.01-.01z"/><path class="cls-2" d="M427 295l1.58-10.34-1.05-6.58-8.27-5.88-5.3-3.66c-.5-.57-1-1.15-1.5-1.7-.94-1-1.94-1.94-2.87-2.95a26.48 26.48 0 0 0-2.44-2.79 13.81 13.81 0 0 1-4.26-5.49c-.63-1.54-1.48-2.92-3.53-3.3a1.12 1.12 0 0 1-.65-.62 44.06 44.06 0 0 0-2-4.7 14.54 14.54 0 0 0-3-3.67c-1.39-1.22-1.81-2.37-1.11-4a2.33 2.33 0 0 0-.24-2.09 15.14 15.14 0 0 1-2.61-3.83 16.19 16.19 0 0 0-.78-1.48 3.25 3.25 0 0 0 .78.09 4.68 4.68 0 0 0 1.74-.51 1 1 0 0 0-.11-1.71 1.06 1.06 0 0 1-.29-.59 6.07 6.07 0 0 0-2.26-3.31c-1.76-1.49-2.35-3.19-1.26-5.24a1.28 1.28 0 0 0 0-1.09c-.63-1.14-1.35-2.24-2-3.35a20.2 20.2 0 0 0-5.19-5.75c-2.42-1.77-3.13-2.44-6.6-.87-2.18 1-4.49 1.72-6.74 2.56 1-1.06 2-2.19 3.11-3.15 2.11-1.78 4.36-3.43 6.51-5.18.85-.69.7-1.13-.28-1.66a36.84 36.84 0 0 1-4.46-2.61c-.88-.65-1.31-1.76-2.11-2.54a16.23 16.23 0 0 1-4-5.45 4.14 4.14 0 0 0-2.68-2.33 33.85 33.85 0 0 1-4.66-2.1 34.45 34.45 0 0 1-3.07-2.27c-1.53-1.09-2.95-2.2-3.24-4.1a1.73 1.73 0 0 0-1.18-1 2.14 2.14 0 0 1-2-2.13 5.77 5.77 0 0 1-.07-1.31c.22-1.29-.58-2.09-1.62-2.74a16.51 16.51 0 0 0-2.36-1.23 1.72 1.72 0 0 0-1.23-.08c-3.15 1.73-6.26 3.52-9.32 5.26v-.07a66.28 66.28 0 0 1 5.24-11.55 2.69 2.69 0 0 0 .39-1.93 14.63 14.63 0 0 0-1.55-2.81.82.82 0 0 0-.49-.33 17.63 17.63 0 0 1-4.34-2 2.26 2.26 0 0 1-1.46-1.56 3.12 3.12 0 0 0-2-2.68.92.92 0 0 1-.42-.52c-.78-2-2.66-3.12-4.48-4.21a2.74 2.74 0 0 0-2.16 0c-2.47 1.25-4.83 2.66-7.24 4-1.09.61-2.21 1.19-3.31 1.78l-.09.08h.07a.75.75 0 0 1 .07-.27c2-2.71 3.78-5.51 5.94-8.08a45.57 45.57 0 0 0 5.78-8.92 1.85 1.85 0 0 0-.33-2.4 12.94 12.94 0 0 1-2.46-2.85 4.11 4.11 0 0 0-2.85-2.39 1.52 1.52 0 0 1-1.33-1.67 17.39 17.39 0 0 0-.21-3.74c-.29-1.47-.86-2.89-1.27-4.35a24.88 24.88 0 0 0-1-3.9 62.87 62.87 0 0 0-3.62-6.68c-1-1.66-2.36-3.16-3.56-4.74l-1.7 1.72c-2.94 3.07-5.65 6.35-8.87 9.16s-6.16 5.65-9.09 8.61c-3.53 3.57-7.09 7.12-10.9 10.44-4.75 4.14-9.77 8-14.68 12a4.67 4.67 0 0 1-.77.49c-3.56 1.88-7.16 3.71-10.69 5.65a18.43 18.43 0 0 0-3.42 2.47c-1.33 1.2-2.38 2.65-3.75 3.8-2.09 1.76-4.3 3.42-6.57 5a5.85 5.85 0 0 1-2.58.82 2.31 2.31 0 0 0-1.69.75c-3 3.5-5.92 7-8.87 10.49-2.76 3.27-5.13 6.81-8.43 9.71a11.11 11.11 0 0 0 .57 1.89c1 2 2.11 4 3.16 6a5.47 5.47 0 0 1 .71 1.54c.27 1.76.32 3.55.68 5.29.61 2.92 1 5.89 4 8a31.65 31.65 0 0 1 4.12 4 1.32 1.32 0 0 1 .45.8 22.48 22.48 0 0 1-.25 3.46 1 1 0 0 0 .48 1.17c1.73 1.46 3.46 2.92 5 4.51 1.84 1.86 3.52 3.85 5.27 5.79l.27-.12a3.2 3.2 0 0 0-.18-.86 18.51 18.51 0 0 0-1.39-2.51c-.91-1.26-1.88-2.48-2.92-3.66a11.33 11.33 0 0 1-2.27-5.38 8.62 8.62 0 0 1 .1-4.32 7.56 7.56 0 0 1 3.58 2.58 4.85 4.85 0 0 0 1.08 1c1.44 1 2.94 1.9 4.35 2.92 2.55 1.85 5.05 3.76 7.58 5.64a43.88 43.88 0 0 1 4.81 3.62c1.8 1.79 4.21 2.79 6.21 4.28a3.31 3.31 0 0 0 .77.29c.62.24 1 .15 1.07-.54s.35-1.57.57-2.53a12.15 12.15 0 0 0 1.18 1.11c2 1.43 4 2.88 6 4.2a4.29 4.29 0 0 0 2.19.47c1.32 0 2.64-.18 4-.3.66-.06 1.5.32 1.84-.62a1.84 1.84 0 0 1 1.05 0 2.41 2.41 0 0 1 .93.59c1.48 1.46 2.93 3 4.42 4.4a2.8 2.8 0 0 0 1.28.87c2.36.39 4.76.62 7.12 1a8.43 8.43 0 0 1 3 .92 22.19 22.19 0 0 1 2.58 2.33 12.47 12.47 0 0 0 1.8 1.23 7.93 7.93 0 0 1 1.56.76c1.33 1.33 2.45 2.83 3.84 4.1 2.18 2 4.55 3.82 6.79 5.76 2.66 2.31 5.29 4.65 7.87 7 1.75 1.62 3.4 3.33 5.09 5l16.39 3L363.61 287l26.84 9.17 6.85-1.17 5.26 2.12 4.47 2.12 32.9 3.53z"/></g><path class="cls-6" d="M608 339.62H0V0h608v339.62z" id="dimensions"/></svg>