<svg id="Red_Mountains" data-name="Red Mountains" xmlns="http://www.w3.org/2000/svg" viewBox="0 0 608.22 339.62"><defs><style>.cls-1{fill:#d17c89;}.cls-2{fill:#b5606d;}.cls-3{fill:none;}</style></defs><title>mount4</title><path class="cls-1" d="M208 144.32l.17-.37h2.74c.66.47 1.36.89 2 1.41 1.48 1.26 3 2.51 4.34 3.87 1.2 1.21 2.21 2.55 3.31 3.84 1.46 1.71 2.81 3.51 4.41 5.12 3.32 3.34 7.55 5.86 11.25 8.86a30.75 30.75 0 0 1 3.59 3.24c2.69 3 6.45 5 9.61 7.58 2.08 1.68 4 3.48 6 5.23l.29.26c2.6 2.26 5.26 4.46 7.77 6.78 2.68 2.48 5.15 5.12 7.81 7.61a51.82 51.82 0 0 0 5.17 4.34c2.94 2.11 6 4.09 9 6.1 1.42.94 2.92 1.8 4.35 2.73s2.67 1.79 4 2.72c2.59 1.83 5.15 3.7 7.75 5.52 3.11 2.17 6.29 4.28 9.37 6.48 2.18 1.57 4.24 3.26 6.35 4.9.76 1.52 1.51 3.05 2.28 4.57a18.3 18.3 0 0 1 1.15 2.19 8.53 8.53 0 0 0 3.68 4.7 6.79 6.79 0 0 1 2.46 2.91c1.06 2.45.59 5 .51 7.6a1.48 1.48 0 0 1-.26.67 15.3 15.3 0 0 0-2.19 8.35c0 3.59.14 7.19.22 10.78h-6.78c-1.44-1.42-2.82-2.88-4.32-4.25q-5.16-4.71-10.43-9.33a6.73 6.73 0 0 0-2-1.14 43.71 43.71 0 0 1-14.87-9.05c-1.43-1.39-2.68-2.91-4.17-4.24a76.58 76.58 0 0 1-8.87-10.05 4 4 0 0 0-1.94-1.21 3.25 3.25 0 0 1-2.24-1.79c-2-3.7-4.1-7.36-6.16-11a4.91 4.91 0 0 1-.56-1.15 9.21 9.21 0 0 0-2-3.75c-1.92-2.3-3.54-4.77-5.3-7.17-.41-.56-.83-1.1-1.29-1.63a10.69 10.69 0 0 1-2.28-4.37c-.28-1.06-.46-1.14-1.66-.71s-2.41 1-3.61 1.46c-.76.32-1.16.26-1.42-.53-.73-2.23-1.48-4.47-2.4-6.65-.84-2-1.91-3.89-2.95-5.81a3.57 3.57 0 0 0-1-.63 3.58 3.58 0 0 1-1.2-1c-1.76-3.5-3.59-7-5.12-10.56a23.62 23.62 0 0 0-3.57-5.83 10 10 0 0 0-2.54-1.92c-.68-.41-1.56-.56-2.27-.93q-3-1.57-6-3.25a1.31 1.31 0 0 1-.62-.88c-.32-3.88-1.8-7.63-1.75-11.55a2 2 0 0 0-.56-1.29c-1.45-1.57-3-3.08-4.44-4.64-1.01-1.03-1.89-2.1-2.81-3.14zM89.94 183a2 2 0 0 1 .85.12c2.29 2.13 4.88 4 6.69 6.52a20.26 20.26 0 0 0 5.5 4.94c4.28 2.76 8.64 5.43 12.94 8.17a62.23 62.23 0 0 1 5.5 3.79 19.94 19.94 0 0 1 4.82 5.3 6.82 6.82 0 0 0 .49.64l.57-.57c0 .92.06 1.85 0 2.77-.24 3.76.79 7.38 1.69 11a7.52 7.52 0 0 0 2.88 3.85 11.47 11.47 0 0 1 3.92 5c-.61-.29-1-.44-1.31-.62-4.29-2.33-8.54-4.71-12.86-7-2.34-1.24-4.71-2.46-7.63-2.59a11.74 11.74 0 0 1-3.08-.88 23.34 23.34 0 0 0-6.77-1.44 2.1 2.1 0 0 1-2-1 30.38 30.38 0 0 1-2.14-4 5.37 5.37 0 0 0-2-2.77c-2.71-1.78-4-4.42-5.79-6.7s-3.27-4.43-4.93-6.64c-.9-1.2-1.89-2.35-2.77-3.56a4.31 4.31 0 0 1-.88-3.68 8 8 0 0 1 1.51-1.98 2.13 2.13 0 0 0 .55-1.19c-.11-1.1.63-1.7 1.55-2.25l.27-.14c2.77-1.34 3-1.85 2.49-4.52-.03-.17-.04-.35-.06-.57zM50.68 164.3c1.33.68 2.68 1.32 4 2q3.54 2 7 4.12c1.55.94 3 2 4.54 2.94s3.45 1.86 5.12 2.85c.93.55 1.71 1.3 2.62 1.89 2.86 1.85 5.74 3.7 8.65 5.5a22.75 22.75 0 0 0 2.53 1.22 2.71 2.71 0 0 1-.64.3c-2 .39-4 .73-6 1.15a1.34 1.34 0 0 0-.93.62 20.09 20.09 0 0 0-.26 5 31.36 31.36 0 0 0 1.72 5.39c.3.87.69 1.71 1 2.57l-.28.11c-.64-.84-1.26-1.69-1.92-2.51-1.25-1.54-2.53-3.06-3.78-4.6a7.43 7.43 0 0 1-1.05-1.43c-1.21-2.59-3.29-4.7-5.27-6.85a2.31 2.31 0 0 0-1.38-.48 3.32 3.32 0 0 1-2.7-1.4c-3.09-4.15-6.39-8.18-9.42-12.36a62.4 62.4 0 0 1-3.55-6.03zM8.44 176.49a5.88 5.88 0 0 1 4 .57c.82.38 1.69.69 2.53 1a19.2 19.2 0 0 1 4.37 5.83 5.22 5.22 0 0 0 2.81 2.68 9.11 9.11 0 0 1 3.74 2.93 10.55 10.55 0 0 0 2.25 1.77c.47.36.93.72 1.42 1 1.17.76 2.35 1.5 3.53 2.25a8.37 8.37 0 0 1 3.18 4.19c-.55-.06-.87-.08-1.19-.13-1.2-.19-2.41-.36-3.6-.6a1.88 1.88 0 0 1-.93-.48c-.86-.9-1.61-1.88-2.53-2.74a5.85 5.85 0 0 0-1.66-.77 4 4 0 0 1-1.4-.58c-1.43-1.84-3.62-3-5.52-4.37a20.93 20.93 0 0 1-4.67-4.54 3.13 3.13 0 0 0-.74-.6 1.88 1.88 0 0 1-.58-.36 8 8 0 0 0-2.91-2.95 2.9 2.9 0 0 1-.74-1.17c-.48-.94-.91-1.94-1.36-2.93zM190.42 154l4.82 2.51a4.38 4.38 0 0 1 .48.34c1 2.67 1.89 5.35 2.94 8a7 7 0 0 0 1.42 1.71 4.43 4.43 0 0 1 .79.82c1 2.1 1.9 4.2 2.77 6.33a20.79 20.79 0 0 1 .7 2.62 1.69 1.69 0 0 1-1.77-1.27c-.79-1.77-1.63-3.53-2.48-5.28a2.59 2.59 0 0 0-2-1.39 2.79 2.79 0 0 1-2.19-1.76c-.8-1.93-1.6-3.86-2.5-5.76a33.09 33.09 0 0 0-2.06-3.6 5 5 0 0 1-.92-3.27zM149.67 188.21c.32-.75 1.06-.54 1.68-.49a8.46 8.46 0 0 1 1.92.36 2.5 2.5 0 0 0 2.31-.41 23.69 23.69 0 0 0 4.26 10.42l-.27.17a9.06 9.06 0 0 1-.93-.58 32.12 32.12 0 0 1-6.28-6.77 20.91 20.91 0 0 0-2.69-2.7zM28.46 169l5.33 3c.23.13.43.29.64.43.74 2.74 1 5.6 2.81 8.1l-.43.16c-.36-.47-.73-.93-1.08-1.41q-3.49-4.79-7-9.6a3.36 3.36 0 0 1-.27-.68zM50.46 164.16l.22.14zM28.07 169.11l.28-.12zM444.14 197.67a5.85 5.85 0 0 0 3 3 6.77 6.77 0 0 1 3.46 3.23 7.46 7.46 0 0 0 1.87 1.87c.7.66 1.41 1.3 2.12 1.95a4.44 4.44 0 0 0 .65.57c1.7 1 3.5 2 5.11 3.1a8.94 8.94 0 0 1 3.5 4.65c.56 1.74 1.33 3.42 2 5.13a7.68 7.68 0 0 1 .49 1.08c.54 2.39 2.27 4.1 4.38 5.61a5.89 5.89 0 0 1 1.05 1 6.23 6.23 0 0 0 3.23 2.05 8.62 8.62 0 0 1 5.63 4.25c.9 1.6 2.14 3.06 3.21 4.59.26.37.46.76.69 1.14l-.26.21c-1.17-.62-2.34-1.22-3.5-1.86s-2.39-1.33-3.56-2a.91.91 0 0 1-.47-.52c0-.76-.62-1-1.36-1.13-2.32-.5-4.6-1.11-6.94-1.53a2.09 2.09 0 0 1-2-2 1.78 1.78 0 0 0-1.31-1.52c-2.66-1.32-5.17-2.84-7.86-4.1s-3.47-3.41-4.2-5.74a36.23 36.23 0 0 0-2.56-5.13 14.88 14.88 0 0 1-1-2.24c-.3-1-.44-1.07-1.57-.67s-2.32.78-3.49 1.17l-.27-.18c.48-.93.93-1.87 1.45-2.79.36-.64.87-1.23 1.19-1.89a1 1 0 0 0-.12-.94c-.56-.6-1.29-1.09-1.87-1.68-2.68-2.67-5.39-5.31-8-8.05a25.33 25.33 0 0 1-2.58-3.66 3.14 3.14 0 0 0-2.23-1.49 2.26 2.26 0 0 1-1.9-1.5c-1.25-3.44-2.46-6.88-3.68-10.33a23.58 23.58 0 0 1 2.9 2.43 39.62 39.62 0 0 0 4 4.1c2.73 2.35 5.17 4.93 7.78 7.37 1.02.85 2.02 1.63 3.02 2.45zM417.14 185.23c-.57.67-1.11 1.36-1.71 2a2 2 0 0 0-.45 2.26c.42 1.16.82 2.34 1.15 3.52a11.37 11.37 0 0 1 .34 2.1 30.45 30.45 0 0 1 .11 4.34c-.22-.38-.47-.76-.66-1.15-.75-1.6-1.47-3.21-2.22-4.81a2.23 2.23 0 0 0-1.88-1.39 1.91 1.91 0 0 1-.91-.55c-1.24-1.12-2.48-2.24-3.66-3.41a4.58 4.58 0 0 1-.86-1.4 29 29 0 0 1-1.09-2.69c-.87-2.59-1.68-5.2-2.56-7.79-.51-1.51-1.13-3-1.7-4.48a1.67 1.67 0 0 1 .65.13c2.56 2.13 5.28 4.13 7.32 6.67a10 10 0 0 0 1.4 1.21c1.93 1.63 3.85 3.27 5.79 4.89a6.73 6.73 0 0 0 .94.55zM608.14 179.85l-3.93-.55c.38-.68-.2-1-1-1.25-1-.36-2-.76-2.23-1.84a1.62 1.62 0 0 0-1.09-.25c-1.4.17-2.78.42-4.41.68.67-1.74 2.45-2.15 3.6-3.15-1.62-1.06-3.32-1.91-3.77-3.67.28-.61.78-.35 1.17-.16 1.26.62 2.49 1.28 3.74 1.92a11.13 11.13 0 0 0 1.28.58c2 .73 4.09 1.43 6.11 2.19a1 1 0 0 1 .56.71c.06 1.58-.03 3.19-.03 4.79zM503.29 187.88l-3-1.26c-.62-.26-1.25-.49-1.87-.76a2.31 2.31 0 0 1-.75-.45 8.32 8.32 0 0 0-5.53-2.61 6.38 6.38 0 0 1-3.74-1.67c-1.58-1.38-3-2.92-4.43-4.4a2 2 0 0 1-.27-.48c.92.45 1.85.9 2.76 1.36 1.27.64 2.5 1.35 3.8 1.94s2.72 1.17 4.12 1.66 3.05.92 4.56 1.41c2.48.81 4.94 1.66 7.41 2.51a8.68 8.68 0 0 1 1.72.75 8.22 8.22 0 0 1 1.19 1.07 5 5 0 0 1-1.65.17c-1.36-.36-2.67-.86-4-1.3l-.93-.31-.26.16.92 2.18zM468.9 186.6a1.42 1.42 0 0 1-1.19 1.16c-2.35 1-5 1.55-7 3a6.26 6.26 0 0 1-.82.43l-.33-.19a21.89 21.89 0 0 1 1.11-2.31c1-1.66 1.62-3.33.84-5.21a6.13 6.13 0 0 1-.22-1.68c1.6 0 2.75.85 4 1.49a8.49 8.49 0 0 1 3.61 3.31zM382.76 184.83a12 12 0 0 0-1.45 1.36 2 2 0 0 0-.48 1.32 25.28 25.28 0 0 0 .72 2.88 18.72 18.72 0 0 1-6-8 10.09 10.09 0 0 1 5.29 1.44 15.77 15.77 0 0 0 1.92 1zM576.56 183a16.87 16.87 0 0 0 .46 2.38 13.34 13.34 0 0 0 1 2l-.34.2c-.49-.43-1-.85-1.47-1.29-1-1-2-1.94-3.11-2.85a3.46 3.46 0 0 1-1.29-1.95 21.42 21.42 0 0 0-1.22-3.1 1.44 1.44 0 0 1 .63-.06 14 14 0 0 1 5.34 4.67zM483.67 176.26l-.22-.14zM503.31 187.87z"/><path class="cls-2" d="M50.68 164.3zM483.67 176.26zM608.22 271.08v-90.07-1.16l-3.93-.55c.38-.68-.2-1-1-1.25-1-.36-2-.76-2.23-1.84a1.62 1.62 0 0 0-1.09-.25c-1.4.17-2.78.42-4.41.68.67-1.74 2.45-2.15 3.6-3.15-1.62-1.06-3.32-1.91-3.77-3.67-.87.71-1.72 1.43-2.61 2.12-1.74 1.33-3.53 2.61-5.24 4-.55.43-.87 1.06-1.42 1.5-1.18 1-2.46 1.82-3.64 2.77a21.43 21.43 0 0 1-5.86 2.88 16.86 16.86 0 0 0 .46 2.38 13.34 13.34 0 0 0 1 2l-.34.2c-.49-.43-1-.85-1.47-1.29-1-1-2-1.94-3.11-2.85a3.46 3.46 0 0 1-1.29-1.95 21.42 21.42 0 0 0-1.22-3.1c-.44.41-.87.83-1.32 1.24-1.33 1.19-2.69 2.37-4 3.58-.68.63-1.27 1.32-1.92 2-1.48 1.45-3.06 2.83-4.44 4.34a45.59 45.59 0 0 1-7.2 6.4 3 3 0 0 1-3.81-.34 13.44 13.44 0 0 0-2.1-1.59 1.1 1.1 0 0 0-.87 0c-1.06.6-2.07 1.27-3.12 1.89-1.64 1-3.26 2-4.94 2.9a2 2 0 0 1-2.5 0 12.77 12.77 0 0 0-2.53-1.34 1.42 1.42 0 0 0-1.72.23c-.92.78-2 1.46-2.77 2-7.42-3-13.89-6.81-18.15-12.78a5 5 0 0 1-1.65.17c-1.36-.36-2.67-.86-4-1.3l-.93-.31-.26.16.92 2.18-3-1.26c-.62-.26-1.25-.49-1.87-.76a2.31 2.31 0 0 1-.75-.45 8.32 8.32 0 0 0-5.58-2.64 6.38 6.38 0 0 1-3.74-1.67c-1.58-1.38-3-2.92-4.43-4.4a1.94 1.94 0 0 1-.27-.48l-.22-.14c-.47-.39-.72 0-1 .2-2 1.65-4 3.35-6.07 4.93-2.43 1.84-5 3.57-7.47 5.35a1.42 1.42 0 0 1-1.19 1.16c-2.35 1-5 1.55-7 3a6.27 6.27 0 0 1-.82.43l-.33-.19a21.88 21.88 0 0 1 1.11-2.31c1-1.66 1.62-3.33.84-5.21a6.13 6.13 0 0 1-.22-1.68 1.21 1.21 0 0 0-.41.17c-.86.91-1.68 1.85-2.55 2.75-2 2.11-4.05 4.22-6.12 6.31a38.66 38.66 0 0 1-3.09 2.86c-1.6 1.3-3.29 2.51-4.94 3.76a5.85 5.85 0 0 0 3 3 6.77 6.77 0 0 1 3.46 3.23 7.46 7.46 0 0 0 1.87 1.87c.7.66 1.41 1.3 2.12 1.95a4.44 4.44 0 0 0 .65.57c1.7 1 3.5 2 5.11 3.1a8.94 8.94 0 0 1 3.5 4.65c.56 1.74 1.33 3.42 2 5.13a7.69 7.69 0 0 1 .49 1.08c.54 2.39 2.27 4.1 4.38 5.61a5.89 5.89 0 0 1 1.05 1 6.23 6.23 0 0 0 3.23 2.05 8.62 8.62 0 0 1 5.63 4.25c.9 1.6 2.14 3.06 3.21 4.59.26.37.46.76.69 1.14l-.26.21c-1.17-.62-2.34-1.22-3.5-1.86s-2.39-1.33-3.56-2a.91.91 0 0 1-.47-.52c0-.76-.62-1-1.36-1.13-2.32-.5-4.6-1.11-6.94-1.53a2.09 2.09 0 0 1-2-2 1.78 1.78 0 0 0-1.31-1.52c-2.66-1.32-5.17-2.84-7.86-4.1s-3.47-3.41-4.2-5.74a36.23 36.23 0 0 0-2.56-5.13 14.88 14.88 0 0 1-1-2.24c-.3-1-.44-1.07-1.57-.67s-2.32.78-3.49 1.17l-.27-.18c.48-.93.93-1.87 1.45-2.79.36-.64.87-1.23 1.19-1.89a1 1 0 0 0-.12-.94c-.56-.6-1.29-1.09-1.87-1.68-2.68-2.67-5.39-5.31-8-8.05a25.33 25.33 0 0 1-2.58-3.66 3.14 3.14 0 0 0-2.23-1.49 2.26 2.26 0 0 1-1.9-1.5c-1.25-3.44-2.46-6.88-3.68-10.33-1.32.72-2.59 1.52-4 2.14-1.68.75-3.26 1.77-5.29 1.8-.57.67-1.11 1.36-1.71 2a2 2 0 0 0-.45 2.26c.42 1.16.82 2.34 1.15 3.52a11.37 11.37 0 0 1 .34 2.1 30.44 30.44 0 0 1 .11 4.34c-.22-.38-.47-.76-.66-1.15-.75-1.6-1.47-3.21-2.22-4.81a2.23 2.23 0 0 0-1.88-1.39 1.91 1.91 0 0 1-.91-.55c-1.24-1.12-2.48-2.24-3.66-3.41a4.58 4.58 0 0 1-.86-1.4 29 29 0 0 1-1.09-2.69c-.87-2.59-1.68-5.2-2.56-7.79-.51-1.51-1.13-3-1.7-4.48l-.77.6c-2.64 2.06-5.28 4.12-7.93 6.16a38.92 38.92 0 0 0-3.41 2.58 14.45 14.45 0 0 1-6.23 3.71 12 12 0 0 0-1.45 1.36 2 2 0 0 0-.48 1.32 25.28 25.28 0 0 0 .72 2.88 18.72 18.72 0 0 1-6-8 1.08 1.08 0 0 0-1.56.25 29.61 29.61 0 0 1-3.37 3.25c-3.3 2.69-6.67 5.31-10 8-2.35 1.86-4.64 3.77-7 5.57-1.46 1.09-3 2.25-5.13 2.24a2.15 2.15 0 0 0-1.58.6q-3.84 3.38-7.73 6.72c-1.35 1.16-2.81 2.23-4.17 3.38s-2.73 2.41-4.1 3.62-2.52 2.1-3.64 3.25c-2.25 2.3-4.45 4.64-6.57 7-1.22 1.37-2.25 2.86-3.37 4.29.76 1.52 1.51 3.05 2.28 4.57a18.3 18.3 0 0 1 1.15 2.19 8.53 8.53 0 0 0 3.68 4.7 6.79 6.79 0 0 1 2.46 2.91c1.06 2.45.59 5 .51 7.6a1.47 1.47 0 0 1-.26.67 15.3 15.3 0 0 0-2.19 8.35c0 3.44.13 6.89.21 10.33h-7.21c-1.28-1.28-2.53-2.58-3.88-3.8q-5.16-4.71-10.43-9.33a6.73 6.73 0 0 0-2-1.14 43.71 43.71 0 0 1-14.87-9.05c-1.43-1.39-2.68-2.91-4.17-4.24a76.58 76.58 0 0 1-8.87-10.05 4 4 0 0 0-1.94-1.21 3.25 3.25 0 0 1-2.24-1.79c-2-3.7-4.1-7.36-6.16-11a4.91 4.91 0 0 1-.56-1.15 9.21 9.21 0 0 0-2-3.75c-1.92-2.3-3.54-4.77-5.3-7.17-.41-.56-.83-1.1-1.29-1.63a10.69 10.69 0 0 1-2.28-4.37c-.28-1.06-.46-1.14-1.66-.71s-2.41 1-3.61 1.46c-.76.32-1.16.26-1.42-.53-.73-2.23-1.48-4.47-2.4-6.65-.84-2-1.91-3.89-2.95-5.81a3.57 3.57 0 0 0-1-.63 3.58 3.58 0 0 1-1.2-1c-1.76-3.5-3.59-7-5.12-10.56a23.62 23.62 0 0 0-3.57-5.83 10 10 0 0 0-2.54-1.92c-.68-.41-1.56-.56-2.27-.93q-3-1.57-6-3.25a1.31 1.31 0 0 1-.62-.88c-.32-3.88-1.8-7.63-1.75-11.55a2 2 0 0 0-.56-1.29c-1.45-1.57-3-3.08-4.44-4.64-1-1-1.84-2.09-2.76-3.14-3 4.92-7.94 8.52-12.28 12.51 1 2.67 1.89 5.35 2.94 8a7 7 0 0 0 1.42 1.71 4.43 4.43 0 0 1 .79.82c1 2.1 1.9 4.2 2.77 6.33a20.79 20.79 0 0 1 .7 2.62 1.69 1.69 0 0 1-1.77-1.27c-.79-1.77-1.63-3.53-2.48-5.28a2.59 2.59 0 0 0-2-1.39 2.79 2.79 0 0 1-2.19-1.76c-.8-1.93-1.6-3.86-2.5-5.76a33.1 33.1 0 0 0-2.06-3.6 5 5 0 0 1-.9-3.25 14.74 14.74 0 0 0-1.46 1.13c-3.09 2.85-5.97 5.85-8.97 8.79-1.17 1.17-2.46 2.25-3.6 3.44-1.79 1.86-3.55 3.75-5.24 5.67a64.42 64.42 0 0 1-8 8.21c-2.62 2.1-5.16 4.27-7.74 6.4a23.69 23.69 0 0 0 4.26 10.42l-.27.17a9.06 9.06 0 0 1-.93-.58 32.13 32.13 0 0 1-6.28-6.77 20.91 20.91 0 0 0-2.7-2.7c-1.75 2.33-3.4 4.73-5.29 7a68.51 68.51 0 0 1-5.34 5.5c-2.33 2.2-4.84 4.27-7.17 6.48-1.61 1.53-3.05 3.18-4.57 4.78 0 .92.06 1.85 0 2.77-.24 3.76.79 7.38 1.69 11a7.52 7.52 0 0 0 2.88 3.85 11.47 11.47 0 0 1 3.92 5c-.61-.29-1-.44-1.31-.62-4.29-2.33-8.54-4.71-12.86-7-2.34-1.24-4.71-2.46-7.63-2.59a11.73 11.73 0 0 1-3.08-.88 23.34 23.34 0 0 0-6.74-1.49 2.1 2.1 0 0 1-2-1 30.38 30.38 0 0 1-2.14-4 5.37 5.37 0 0 0-2-2.77c-2.71-1.78-4-4.42-5.79-6.7s-3.27-4.43-4.93-6.64c-.9-1.2-1.89-2.35-2.77-3.56a4.31 4.31 0 0 1-.88-3.68 8 8 0 0 1 1.51-1.98 2.13 2.13 0 0 0 .55-1.19c-.11-1.1.63-1.7 1.55-2.25l.27-.14c2.77-1.34 3-1.85 2.49-4.52 0-.18 0-.35-.07-.53-1 .4-2 .82-3 1.2-.59.22-1.21.39-1.81.58a2.71 2.71 0 0 1-.64.3c-2 .39-4 .73-6 1.15a1.34 1.34 0 0 0-.93.62 20.09 20.09 0 0 0-.27 5 31.36 31.36 0 0 0 1.72 5.39c.3.87.69 1.71 1 2.57l-.28.11c-.64-.84-1.26-1.69-1.92-2.51-1.25-1.54-2.53-3.06-3.78-4.6a7.43 7.43 0 0 1-1.05-1.43c-1.21-2.59-3.29-4.7-5.27-6.85a2.31 2.31 0 0 0-1.38-.48 3.32 3.32 0 0 1-2.7-1.4c-3.09-4.15-6.39-8.18-9.42-12.36a62.42 62.42 0 0 1-3.5-6.06l-.22-.14c-1.85-.61-2.86.65-4 1.37-3.4 2.08-6.72 4.26-10.1 6.35a8.77 8.77 0 0 1-1.88.63c.74 2.74 1 5.6 2.81 8.1l-.43.16c-.36-.47-.73-.93-1.08-1.41q-3.49-4.79-7-9.6a3.36 3.36 0 0 1-.31-.72.09.09 0 0 0-.11 0l-.28.12a23.29 23.29 0 0 0-2.63 1.49c-2.06 1.54-4 3.19-6.07 4.71-1.37 1-2.9 1.85-4.35 2.77a19.2 19.2 0 0 1 4.37 5.83 5.21 5.21 0 0 0 2.81 2.68 9.11 9.11 0 0 1 3.74 2.93 10.55 10.55 0 0 0 2.17 1.73c.47.36.93.72 1.42 1 1.17.76 2.35 1.5 3.53 2.25a8.37 8.37 0 0 1 3.18 4.19c-.55-.06-.87-.08-1.19-.13-1.2-.19-2.41-.36-3.6-.6a1.88 1.88 0 0 1-.93-.48c-.86-.9-1.61-1.88-2.53-2.74a5.85 5.85 0 0 0-1.66-.77 4 4 0 0 1-1.4-.58c-1.43-1.84-3.62-3-5.52-4.37a20.93 20.93 0 0 1-4.67-4.54 3.12 3.12 0 0 0-.74-.6 1.88 1.88 0 0 1-.58-.36 8 8 0 0 0-2.91-2.95 2.9 2.9 0 0 1-.73-1.17c-.47-1-.91-2-1.35-3a15.79 15.79 0 0 0-1.86 1.13c-2.14 1.73-4.46 4-6.57 5.78 0 29.66.22 58.8.22 88.46H.02v67.76h608v-67.22h.21v-1.25z"/><path class="cls-3" d="M608.13 339.62H.14V0h607.99v339.62z" id="dimensions"/></svg>