<svg id="Layer_3_Image" data-name="Layer 3 Image" xmlns="http://www.w3.org/2000/svg" viewBox="0 0 608.21 339.62"><defs><style>.cls-1{fill:#6f3b53;}.cls-2{fill:none;}</style></defs><title>mount3</title><path class="cls-1" d="M606.5,197.76c-3.13,1.06-6.3,2-9.46,3a6.35,6.35,0,0,0-1.13.43,21.07,21.07,0,0,1-7.67,2.23c-1.55.2-3.06,0.64-4.59,1a3.62,3.62,0,0,1-2.69-.22c-1.74-.9-3.61-1.61-5.43-2.4a4.16,4.16,0,0,0-3-.17,10.46,10.46,0,0,1-2.2.45,5.82,5.82,0,0,1-3.36-.64c-3.55-1.91-7.21-3.65-10.84-5.43a10.81,10.81,0,0,0-7.45-.54c-4.57,1-9.17,2-13.81,2.83-3.88.67-7.84,1-11.75,1.56-2.26.34-4.47,0.89-6.7,1.39a4.66,4.66,0,0,1-3.17-.19,24,24,0,0,0-6.88-1.76c-1.72-.3-3.49-0.4-5.24-0.59a13.28,13.28,0,0,0-6.65,1.39,42.24,42.24,0,0,0-8.63,4.65,1.12,1.12,0,0,1-.78.16c-3.49-.79-6.24.76-8.91,2.35a18.92,18.92,0,0,0-2.7,2.52,8.46,8.46,0,0,1-7.34,2.47,15.48,15.48,0,0,1-4.55-1.58,56,56,0,0,0-8.56-3.59c-1.52-.48-3.36-0.14-5.06-0.16a5.59,5.59,0,0,1-1.65,0,3.21,3.21,0,0,0-2.63.43,26.53,26.53,0,0,1-3.92,1.81,8.68,8.68,0,0,1-3.65,0,15.57,15.57,0,0,1-3.59-1.27c-2.8-1.29-3.25-.77-5.83,1.06-1.78,1.26-3.53,2.57-5.35,3.79a4.7,4.7,0,0,1-1.87.73,5.8,5.8,0,0,1-2-.15c-1.15-.25-2.27-0.59-3.5-0.92a10.23,10.23,0,0,1-2.48,5.29c-0.89,1-1.8,1.9-2.79,2.77a2.6,2.6,0,0,1-1.4.45,24.09,24.09,0,0,0-7.15,1.25,5,5,0,0,1-2.76-.14,3.7,3.7,0,0,0-3.42.69c-1.87,1.42-3.81,2.77-5.69,4.17a2.9,2.9,0,0,1-3.16.38c-1.7-.8-3.34-1.69-5.08-2.39a3.34,3.34,0,0,0-1.94.18,18,18,0,0,0-2,.95,3.66,3.66,0,0,1-3.35,0c-0.83-.42-1.8-1.12-2.58-1s-1.43,1.1-2.17,1.67c-2.42,1.86-4.83,3.73-7.28,5.55a2.71,2.71,0,0,1-3,.23c-2.84-1.27-5.75-2.41-8.63-3.61a1.39,1.39,0,0,0-2,.57,5.68,5.68,0,0,1-1.5,1.36,2.94,2.94,0,0,1-3.46.06c-2.11-1.19-4.34-2.22-6.48-3.39a38.28,38.28,0,0,1-3.62-2.28,22.61,22.61,0,0,1-2.62-2.15,29.14,29.14,0,0,0-6.31-4.51,48.58,48.58,0,0,1-4.44-3,14.29,14.29,0,0,0-1.52-1.12,1.63,1.63,0,0,0-1.21-.05c-1.13.51-2.2,1.13-3.3,1.7-1.66.86-2,.81-3.61-0.45-0.21-.17-0.38-0.37-0.6-0.53-1.1-.79-1.4-0.71-2.32.26-1.5,1.59-3,3.15-4.61,4.69-1.3,1.28-2.65,2.52-4,3.76a4.4,4.4,0,0,1-1.3.91,3.88,3.88,0,0,0-2,1.52,1,1,0,0,1-.87.26c-1.43-.42-2.82-0.94-4.25-1.36a13.13,13.13,0,0,0-3.16-.7,3.87,3.87,0,0,0-2,.79c-1.16.78-2.19,1.71-3.32,2.53a1.74,1.74,0,0,1-1.69,0,65.23,65.23,0,0,1-10.58-5.08,55.71,55.71,0,0,0-6.79-3,75.13,75.13,0,0,1-10.51-4.59c-1.2-.69-2.61-1.1-3.83-1.77a4.76,4.76,0,0,0-5.19.31c-1.89,1.16-3.8,2.31-5.73,3.42a1.64,1.64,0,0,1-1.17.14c-3-1-5.87-2.19-8.85-3.17a27.37,27.37,0,0,0-7.75-1.69,17.82,17.82,0,0,0-6.18,1.28,13,13,0,0,1-4.25.89,11.4,11.4,0,0,1-3.74-1.16,44.86,44.86,0,0,0-11.63-2.91c-0.82-.1-1.63-0.22-2.44-0.38-2.52-.49-4.33.87-6.28,1.87-0.93.47-1.88,0.89-2.83,1.33a3.41,3.41,0,0,1-4-.76c-1-.89-2.14-1.71-3.13-2.63a13.52,13.52,0,0,0-4.59-2.95c-3.43-1.27-6.29-3.37-9.39-5.13a18.56,18.56,0,0,0-4-1.51,3.48,3.48,0,0,0-2.7.72c-1.56.91-3.13,1.46-4.81,0.2a1.16,1.16,0,0,0-1.76.21,14.67,14.67,0,0,1-5,4.08,19.93,19.93,0,0,1-1.77.94,1.88,1.88,0,0,1-1.79.1,7.31,7.31,0,0,0-2-.57,3.48,3.48,0,0,0-2.91.93c-1.93,1.47-3.78,3-5.71,4.5s-4,3-6.09,4.5a14.68,14.68,0,0,0-5.79-3.23,8.36,8.36,0,0,0-2-.27,1.13,1.13,0,0,0-1.22,1.17,1.23,1.23,0,0,1-.59.91c-1.32.58-2.69,1.05-4.17,1.62-1-.78-2.12-1.6-3.18-2.49-1.55-1.29-2.72-1.37-4.53-.38-1.22.66-2.53,1.21-3.82,1.77a0.93,0.93,0,0,1-.76-0.11,44.24,44.24,0,0,0-10.28-6.46c-1.78-.84-3.74-1.35-5.51-2.2-2.65-1.27-5.22-2.68-7.78-4.1a2.18,2.18,0,0,0-2.31,0,24.72,24.72,0,0,1-4.89,1.84c-0.85.2-1.92-.3-2.88-0.5a30.65,30.65,0,0,0-4.5-.84,13.28,13.28,0,0,0-3,.76,9.13,9.13,0,0,1-2.45.27,10.24,10.24,0,0,0-4.75,1.09,7.45,7.45,0,0,1-5.66.44c-1.08-.39-2.18-0.71-3.27-1.09a10.86,10.86,0,0,1-1.93-.8,1.69,1.69,0,0,1-.88-1,1.09,1.09,0,0,0-1.21-1,9,9,0,0,1-5-2.33,5.44,5.44,0,0,0-3-1.1,14,14,0,0,1-6.91-3,9.15,9.15,0,0,0-1.52-.95,1.9,1.9,0,0,0-1.15-.1,14.38,14.38,0,0,0-2.18.78,4.27,4.27,0,0,1-4.41-.44c-1-.63-2.1-1-3.12-1.59A13,13,0,0,1,4.46,191C3,189.74,1.35,188.37,0,187a7.46,7.46,0,0,0,0,1.25c0,28.11.11,55.82,0.11,83.93H-0.14v67.4H608.07v-143A6.67,6.67,0,0,1,606.5,197.76Z" transform="translate(0.14)"/><g id="dimensions"><polygon class="cls-2" points="608.13 339.62 0.14 339.62 0.14 180.51 0.14 0 608.13 0 608.13 339.62"/></g></svg>