<svg id="Demand" xmlns="http://www.w3.org/2000/svg" viewBox="0 0 608 339.62"><defs><style>.cls-1,.cls-2{fill:none;}.cls-2{stroke:#1b77aa;stroke-miterlimit:10;stroke-width:3px;}</style></defs><title>mount6demand</title><g id="dimensions"><polygon class="cls-1" points="608 339.62 0 339.62 0 180.51 0 0 608 0 608 339.62"/></g><polyline id="mount6demand" class="cls-2" points="41.73 174.23 43.11 173.33 47.88 176.16 49.28 176.46 62.89 171.7 76.24 164.92 87.4 158.66 104.52 146.82 116.06 151.86 123.85 156.37 126.25 156.69 131 154.33 132.35 154.68 139.6 159.96 145.31 163.06 154.8 167.4 163.76 170.23 172.72 174.71 183.28 178.7 192.66 179.07 204.94 184.76 208.49 186.24 214.13 186.91 232.11 166.36 236.38 164.79 243.87 158.89 248.42 154.54 260.75 147.82 275.71 135.69 306.74 105.18 307.28 104.65 316.44 113.06 321.48 110.12 322.4 110.29 333.96 120.12 352.26 134.78 362.83 144.97 368.4 149.49 383.2 161.31 398.42 174.05 406.04 169.8 410.87 165.57 414.27 163.6 417.23 158.32 418.03 158.27 428.93 165.74 451.78 179.57 463.89 185.32 467.38 187.95 475.24 191.43 478.27 194.15 480.71 192.22 485.13 186.94 503.82 173.03 512.54 166.01 531.85 152.53 550.75 139 553.67 137.98 557.12 139.72 564.06 144.59"/></svg>