<svg id="Supply" xmlns="http://www.w3.org/2000/svg" viewBox="0 0 608 339.62"><defs><style>.cls-1,.cls-2{fill:none;}.cls-1{stroke:#bc485e;stroke-miterlimit:10;stroke-width:3px;}</style></defs><title>mount4supply</title><polyline id="mount4supply" class="cls-1" points="41.53 167.3 47.74 163.3 49.81 163.45 84.33 184.7 89.19 182.86 96.75 189.74 100.9 193.89 108.04 197.93 126.65 212.8 137.62 201.91 142.66 196.75 149.09 188.21 155.02 187.65 162.78 181.02 167.21 176.71 189.95 152.77 195.27 155.72 202.19 149.33 207.58 142.76 210.51 142.37 216.4 147.4 224.57 157.11 260.77 187.47 267.52 194.53 276.22 202.56 317.19 232.02 327.15 220.3 346.85 202.73 351.35 201.33 374.83 181.79 380.94 183.66 382.85 184.71 386.64 182.92 389.49 179.84 401.24 171.2 417.37 185.13 420.8 184.18 426.66 181.05 444.44 198 450.95 192.71 461.6 181.6 465.63 183.13 469.23 186.55 482.81 175.9 483.51 175.52 491.75 179.76 505.55 184.32 509.69 186.92 516.56 193.92 527.89 200.15 531.57 197.62 536.02 199.66 545.52 194.2 550.78 196.71 557.19 192.01 566.37 182.56"/><g id="dimensions"><polygon class="cls-2" points="608 339.62 0 339.62 0 180.51 0 0 608 0 608 339.62"/></g></svg>