<svg id="Layer_5_Image" data-name="Layer 5 Image" xmlns="http://www.w3.org/2000/svg" viewBox="0 0 608.25 339.62"><defs><style>.cls-1{fill:#af85a6;}.cls-2{fill:none;}</style></defs><title>mount5</title><path class="cls-1" d="M608,173.64c-1.57.76-3.1,1.59-4.72,2.27a10.61,10.61,0,0,1-2.42.36,12,12,0,0,1-.71,1.76,1.36,1.36,0,0,1-1,.56,15.18,15.18,0,0,1-5.27-.51c-1.79-.6-3.65-0.06-5.45.26-1.22.22-2.42,0.59-3.65,0.74a2.85,2.85,0,0,1-1.7-.39c-1.45-.93-1.41-1-3-0.28-1.29.54-2.56,1.11-3.88,1.58a12.55,12.55,0,0,1-7.2.5,20.72,20.72,0,0,0-10.18.38c-1.48.39-2.77,1.29-4.23,1.78s-3.26.86-4.91,1.25a1.11,1.11,0,0,1-.68-0.17c-1.34-.75-2.75-1.45-4-2.31-1.64-1.14-3.63-1.36-5.57-1.73a17.27,17.27,0,0,0-3-.21,3.36,3.36,0,0,0-1.61.29,30.17,30.17,0,0,1-7.88,2.93c-1.2.31-2.33,0.85-3.67,0.52a1.83,1.83,0,0,0-.88.24c-0.58.22-1.16,0.43-1.71,0.69a3.64,3.64,0,0,1-3.85-.4c-2.75-1.66-5.64-3.11-9.23-3.1a8.63,8.63,0,0,1-2.44-.5,9.62,9.62,0,0,0-7.49.63,24.88,24.88,0,0,1-8.83,2.43c-3.81.52-7.68,0.76-11.49,1.28s-7.56-.34-11.16-1.5a11.33,11.33,0,0,0-2.57-.44,10.18,10.18,0,0,1-4.06-1.13,40.65,40.65,0,0,0-3.79-1.73,1.75,1.75,0,0,0-1.21.1c-0.69.34-1.26,0.85-1.94,1.21s-1.35.57-2,.86a4.6,4.6,0,0,0-1.44.69,11.46,11.46,0,0,1-4.88,2.63c-1.36.45-2.68,1-4,1.56a1.78,1.78,0,0,1-1.94-.13,3.51,3.51,0,0,0-4.11-.26c-2,1.11-4,2.28-6,3.45-0.92.54-1.71,1.36-3.06,0.92a1,1,0,0,0-.6.08c-4.2,2-8.41,4-12.59,6.08a4.86,4.86,0,0,1-3.53.2c-2.36-.62-4.7-1.32-7.09-1.84a5.12,5.12,0,0,0-2.53.23,23.28,23.28,0,0,0-3.2,1.51,3.87,3.87,0,0,1-3.46.11c-2.51-1-5-2-7.63-2.92a11.07,11.07,0,0,0-3.39-.4,2.92,2.92,0,0,0-1.5.69c-1.51,1.1-2.92,2.32-4.48,3.36-1.12.74-2.54,1.17-3.62,1.94-1.24.88-2.24,2-3.38,3a2,2,0,0,1-1.14.54,3.24,3.24,0,0,0-2.76,1.3,5.8,5.8,0,0,1-4.92,2.28c-1.09,0-2.18,0-3.27,0a0.82,0.82,0,0,0-1,.73c-0.13.92-.4,1.83-0.62,2.78a5.33,5.33,0,0,0-1-.12c-3.05.26-5.36-1-7.59-2.53-0.74-.49-1.54-0.93-2.28-1.42a1.24,1.24,0,0,0-1.51,0c-1.92,1.19-3.85,2.36-5.81,3.5a13.62,13.62,0,0,1-2.48,1.13,1.69,1.69,0,0,1-1.26-.19c-1.25-.95-2.44-2-3.59-3a1.6,1.6,0,0,0-1.89-.45c-1.59.72-3.19,1.45-4.75,2.22-0.91.45-1.74,1-2.63,1.46a3,3,0,0,1-3.19.17,1.92,1.92,0,0,0-1.27,0,2.63,2.63,0,0,1-2.93-.6c-1.56-1.82-3.8-2.15-6.22-2.2a44.63,44.63,0,0,0-8.81,1.09,4.76,4.76,0,0,1-2.18,0c-1.81-.62-3.67-0.35-5.51-0.48-1.55-.11-3.09-0.38-4.64-0.57a3,3,0,0,0-1,0c-2,.49-3.92,1.08-5.92,1.49a6.12,6.12,0,0,1-2.63-.13c-1.53-.4-3-1-4.49-1.5a6,6,0,0,0-3.27-.32c-2.43.52-4.78,0-7.16-.39a13.5,13.5,0,0,0-3.29-.08,40.54,40.54,0,0,1-4.33.6c-2.38-.06-4.73-0.36-6.2-2.35a5.4,5.4,0,0,0-2.14-1.45c-4.18-1.82-8.86-2.36-13.26-3.59a20.35,20.35,0,0,1-7.54-3.92,16.45,16.45,0,0,0-5.6-3.2c-1.47-.47-2.91-1-4.36-1.53a16,16,0,0,0-4.59-.82,26,26,0,0,1-4.45-.91,2.64,2.64,0,0,0-2.26.32,30.78,30.78,0,0,1-2.89,1.61,4.44,4.44,0,0,1-4.58.11,6.51,6.51,0,0,0-5.31-.65,12.62,12.62,0,0,1-4.74-.07,17.1,17.1,0,0,1-6.81-2.65,1.85,1.85,0,0,0-2.38-.06c-1,.67-2.29,1-3.31,1.67-2.16,1.36-4.23,2.81-6.33,4.23l-0.84.53a2.47,2.47,0,0,1-3,.14,5.22,5.22,0,0,0-.85-0.38c-1.25,2.09-3.68,2.29-6,2.68a3,3,0,0,1-1.42-.13,52.16,52.16,0,0,0-13.16-3.13,23.16,23.16,0,0,0-3.16,0,10.18,10.18,0,0,1-4.31-1c-1.69-.69-3.46-1.25-5.22-1.8a1.8,1.8,0,0,0-1.25.18,4.12,4.12,0,0,1-5.06-.12c-3.72-2.59-7.59-5-11.4-7.53-0.28-.18-0.57-0.34-0.84-0.54a3.74,3.74,0,0,0-4.24-.39,14.58,14.58,0,0,1-8.6,1.45,3.17,3.17,0,0,0-1.92.51A6.9,6.9,0,0,1,90,186c-3-.35-6-0.75-8.93-1.1a1,1,0,0,0-.71.18c-1.5,1.88-4,2.62-6.06,3.9-1.32.83-2.75,1.53-4.14,2.26a3.73,3.73,0,0,1-3.91-.06c-1.43-.85-2.93-1.62-4.36-2.46a1.7,1.7,0,0,0-1.74-.16c-0.12.06-.27,0.08-0.39,0.13a7.19,7.19,0,0,1-6,.09,13.07,13.07,0,0,0-3.39-.5,1.39,1.39,0,0,0-.73.25c-0.55.32-1,.7-1.61,1a2.4,2.4,0,0,1-2.84.05c-0.76-.56-1.63-1-2.43-1.54a2.64,2.64,0,0,0-2.09-.46,12.41,12.41,0,0,1-6.29-.9,7.66,7.66,0,0,0-3.95-.42A7.69,7.69,0,0,1,24,184.81a9,9,0,0,0-3.61-1.68,12.37,12.37,0,0,1-3.68-1.43c-0.54-.33-1-0.71-1.53-1.08a6.88,6.88,0,0,0-3.68-1.55,7.26,7.26,0,0,1-4.41-1.84c-1.86-1.66-2.09-1.63-4.32-.34C1.8,177.44.89,178,0,178.61q0,48.09,0,96.17H-0.25v64.83h608v-63H608v-103Z" transform="translate(0.25)"/><g id="dimensions"><polygon class="cls-2" points="608.25 339.62 0.25 339.62 0.25 180.51 0.25 0 608.25 0 608.25 339.62"/></g></svg>