<?xml version="1.0" encoding="UTF-8"?>
<svg width="36px" height="36px" viewBox="0 0 36 36" version="1.1" xmlns="http://www.w3.org/2000/svg" xmlns:xlink="http://www.w3.org/1999/xlink">
    <!-- Generator: Sketch 48.2 (47327) - http://www.bohemiancoding.com/sketch -->
    <title>Fill 1</title>
    <desc>Created with Sketch.</desc>
    <defs></defs>
    <g id="desktop" stroke="none" stroke-width="1" fill="none" fill-rule="evenodd" transform="translate(-1017.000000, -8052.000000)">
        <g id="homepage" transform="translate(0.000000, -140.000000)" fill="#F7931A">
            <g id="Footer-Copy-5" transform="translate(0.000000, 7781.000000)">
                <g id="Join-us" transform="translate(352.000000, 251.000000)">
                    <g id="logos" transform="translate(35.000000, 160.000000)">
                        <g id="Page-1" transform="translate(629.500000, 0.000000)">
                            <path d="M25.2311927,12.903534 C24.9328319,12.2562621 24.437401,11.7102809 23.7448999,11.2629298 C23.4786557,11.0844834 23.1457079,10.9326425 22.7808335,10.7861226 L23.2815856,8.12273007 L20.7219541,7.64592293 L20.2584497,10.1308692 L18.6151849,9.82452675 L19.0813499,7.33711002 L16.5217185,6.85232127 L16.0502324,9.3505702 L12.1510181,8.61550045 L11.7621989,10.6983248 L12.3560699,10.8207097 C12.7557213,10.8845627 13.0219655,10.9752112 13.1498616,11.0765018 C13.2750971,11.1776024 13.362895,11.2895352 13.3841793,11.4278834 C13.4242775,11.55844 13.4054637,11.843498 13.3203263,12.2963603 L11.7409146,20.7205864 C11.6635688,21.1628065 11.581092,21.4396929 11.5012757,21.5516257 C11.4079667,21.666029 11.2988845,21.7433748 11.1470436,21.7914546 C10.9925421,21.8338332 10.7209768,21.81787 10.3213254,21.7380537 L9.7113011,21.6287814 L9.32514243,23.7144563 L13.2270173,24.4386939 L12.769024,26.9291512 L15.3231443,27.4164105 L15.7866487,24.9261432 L17.2355039,25.2005591 C17.3022075,25.2165223 17.368721,25.2218434 17.4299135,25.2324856 L16.9665991,27.7254134 L19.5260405,28.19937 L20.0267925,25.509372 C20.4688226,25.4987298 20.8631529,25.4614822 21.2094034,25.4002898 C22.1575066,25.2136717 22.9379956,24.8115498 23.5504903,24.2309815 C24.1578541,23.6528838 24.5385016,22.9552517 24.687872,22.1561389 C24.8129175,21.4904333 24.7676883,20.851143 24.5573154,20.251951 C24.338961,19.6419267 23.9820683,19.1387042 23.5026006,18.7337317 C23.1696528,18.4539947 22.6662402,18.1423312 21.9923629,17.8388394 C22.7034878,17.7322277 23.278925,17.5592924 23.7422394,17.2875371 C24.2084044,17.0104606 24.594563,16.6775128 24.8874127,16.2727303 C25.1831129,15.8626268 25.3881647,15.407104 25.4814737,14.9090125 C25.6067092,14.2218325 25.5240424,13.5508058 25.2311927,12.903534 M35.5305308,17.5298364 C35.5305308,27.2007165 27.6948546,35.0312617 18.0292956,35.0312617 C8.36373658,35.0312617 0.522549219,27.2007165 0.522549219,17.5298364 C0.522549219,7.86427742 8.36107604,0.0312617188 18.0266351,0.0312617188 C27.692004,0.0312617188 35.5305308,7.86427742 35.5305308,17.5298364 M20.8551713,12.9487632 C20.5035996,12.7649958 19.8510067,12.5759072 18.8789587,12.3921398 L17.2275223,12.0857974 L16.5376817,15.7666572 L18.1891182,16.0809813 C19.057405,16.2408038 19.7177896,16.2886936 20.1546886,16.2248406 C20.5967186,16.1528159 20.9456297,15.9905228 21.212064,15.7427124 C21.4703266,15.4871103 21.6407913,15.1674652 21.7101554,14.7892881 C21.7873112,14.3896367 21.7580452,14.0380651 21.6115253,13.7132889 C21.467666,13.3963044 21.2173851,13.1431728 20.8551713,12.9487632 M19.9363341,18.9441045 C19.552836,18.7018052 18.9321695,18.5072055 18.0798459,18.3422519 L16.1142755,17.9826987 L15.5042512,21.2506044 C15.4350771,21.7167694 15.4004901,21.9909952 15.4084717,22.0816437 C15.4217744,22.1855949 15.4723247,22.2654111 15.5443494,22.3159614 C15.6241656,22.3718328 15.8425201,22.4411969 16.2155661,22.5025794 L17.3155102,22.7156128 C17.9492893,22.8300162 18.4952705,22.8725848 18.9374906,22.8300162 C19.3848417,22.7847869 19.7871537,22.6063406 20.1546886,22.289546 C20.5169024,21.9725615 20.7512201,21.5516257 20.8525107,21.0162867 C20.9243454,20.5687455 20.9004005,20.1772657 20.7512201,19.8256941 C20.5967186,19.4847647 20.3304744,19.1786123 19.9363341,18.9441045" id="Fill-1"></path>
                        </g>
                    </g>
                </g>
            </g>
        </g>
    </g>
</svg>