<?xml version="1.0" encoding="UTF-8"?>
<svg width="35px" height="35px" viewBox="0 0 35 35" version="1.1" xmlns="http://www.w3.org/2000/svg" xmlns:xlink="http://www.w3.org/1999/xlink">
    <!-- Generator: Sketch 48.2 (47327) - http://www.bohemiancoding.com/sketch -->
    <title>Facebook-icon</title>
    <desc>Created with Sketch.</desc>
    <defs>
        <polygon id="path-1" points="0 34.9944591 34.9422823 34.9944591 34.9422823 0.0578100264 0 0.0578100264"></polygon>
    </defs>
    <g id="desktop" stroke="none" stroke-width="1" fill="none" fill-rule="evenodd" transform="translate(-877.000000, -8052.000000)">
        <g id="homepage" transform="translate(0.000000, -140.000000)">
            <g id="Footer-Copy-5" transform="translate(0.000000, 7781.000000)">
                <g id="Join-us" transform="translate(352.000000, 251.000000)">
                    <g id="logos" transform="translate(35.000000, 160.000000)">
                        <g id="Facebook-icon" transform="translate(490.000000, 0.000000)">
                            <g id="Group-3">
                                <mask id="mask-2" fill="white">
                                    <use xlink:href="#path-1"></use>
                                </mask>
                                <g id="Clip-2"></g>
                                <path d="M34.9422823,17.528905 C34.9422823,27.1778232 27.1199208,35 17.4711873,35 C7.82189974,35 0,27.1778232 0,17.528905 C0,7.87970976 7.82189974,0.0578100264 17.4711873,0.0578100264 C27.1199208,0.0578100264 34.9422823,7.87970976 34.9422823,17.528905" id="Fill-1" fill="#2B4B82" mask="url(#mask-2)"></path>
                            </g>
                            <path d="M14.7333377,22.8018074 C14.7333377,21.1666887 14.727058,19.5316623 14.739248,17.8968206 C14.7414644,17.6212533 14.6635224,17.535 14.3878628,17.5462665 C13.8783773,17.5669525 13.3675066,17.5441425 12.8573747,17.5558707 C12.6507916,17.5611346 12.5746966,17.5038786 12.5770053,17.2851055 C12.5872559,16.2650264 12.5862401,15.2443008 12.5780211,14.2239446 C12.5761741,14.0277045 12.635277,13.963153 12.8337335,13.9675858 C13.3553166,13.979591 13.8780079,13.9529947 14.3986675,13.9787599 C14.7004617,13.9935356 14.7628892,13.8863193 14.7566095,13.6063193 C14.7384169,12.8299472 14.7384169,12.0523747 14.755409,11.2759103 C14.7761873,10.3275858 15.0306992,9.4421504 15.5955937,8.67113456 C16.3103694,7.69455145 17.3266623,7.24813984 18.4991161,7.19587071 C19.7032454,7.14240106 20.9104222,7.17204485 22.116029,7.15911609 C22.2841029,7.15717678 22.334248,7.21729551 22.3335092,7.38065963 C22.328153,8.41246702 22.3270449,9.4446438 22.334248,10.4764512 C22.3359103,10.6600396 22.2759763,10.7161873 22.0958047,10.7133245 C21.5159499,10.7042744 20.9360026,10.7087071 20.3565172,10.710277 C19.5847625,10.7126781 19.1228364,11.1096834 19.0744459,11.8735884 C19.0356596,12.4860422 19.0640106,13.10219 19.0497889,13.7163984 C19.0445251,13.9352639 19.1745515,13.9202111 19.3193536,13.9200264 C20.2004485,13.9187335 21.0819129,13.9287995 21.9630079,13.9137467 C22.2216755,13.9092216 22.3070053,13.9687863 22.2774538,14.241029 C22.1665435,15.2662797 22.0712401,16.2934697 21.9834169,17.3212137 C21.9633773,17.5531003 21.8575462,17.5973351 21.6492084,17.5938259 C20.9541029,17.5831135 20.2582586,17.586438 19.5625066,17.5908707 C19.0629024,17.5938259 19.1113852,17.5177309 19.1113852,18.0272164 C19.1090765,21.2275462 19.1047361,24.4279683 19.118496,27.6282058 C19.1198813,27.9662005 19.0335356,28.0500528 18.6991425,28.0441425 C17.5050792,28.0221636 16.3103694,28.0210554 15.1163061,28.0446966 C14.7797889,28.0513456 14.7243799,27.9372032 14.727058,27.6370712 C14.7398021,26.0253166 14.7333377,24.4136544 14.7333377,22.8018074" id="Fill-4" fill="#FFFFFE"></path>
                        </g>
                    </g>
                </g>
            </g>
        </g>
    </g>
</svg>