<?xml version="1.0" encoding="UTF-8"?>
<svg width="35px" height="35px" viewBox="0 0 35 35" version="1.1" xmlns="http://www.w3.org/2000/svg" xmlns:xlink="http://www.w3.org/1999/xlink">
    <!-- Generator: Sketch 48.2 (47327) - http://www.bohemiancoding.com/sketch -->
    <title>Github-icon</title>
    <desc>Created with Sketch.</desc>
    <defs></defs>
    <g id="desktop" stroke="none" stroke-width="1" fill="none" fill-rule="evenodd" transform="translate(-807.000000, -8052.000000)">
        <g id="homepage" transform="translate(0.000000, -140.000000)">
            <g id="Footer-Copy-5" transform="translate(0.000000, 7781.000000)">
                <g id="Join-us" transform="translate(352.000000, 251.000000)">
                    <g id="logos" transform="translate(35.000000, 160.000000)">
                        <g id="Github-icon" transform="translate(420.000000, 0.000000)">
                            <path d="M29.4,30.4228598 C26.2774432,33.263319 22.0955896,35 17.5,35 C11.7754036,35 6.69280077,32.3051952 3.5,28.1389275 L3.5,7.54734697 C6.69280077,3.38107926 11.7754036,0.68627451 17.5,0.68627451 C22.0955896,0.68627451 26.2774432,2.42295547 29.4,5.26341474 L29.4,30.4228598 Z" id="Combined-Shape" fill="#FFFFFF"></path>
                            <path d="M17.4983885,0 C7.83602934,0 0,7.87572145 0,17.591595 C0,25.3636459 5.01381258,31.9564444 11.967832,34.2825522 C12.8433961,34.4445374 13.1624666,33.901347 13.1624666,33.4348295 C13.1624666,33.0179876 13.1474263,31.9110885 13.1388318,30.4435024 C8.27112557,31.5061255 7.24408361,28.0849976 7.24408361,28.0849976 C6.44801866,26.0526231 5.3006538,25.5115924 5.3006538,25.5115924 C3.71174683,24.4208919 5.4209767,24.44249 5.4209767,24.44249 C7.17747629,24.5666786 8.10138433,26.2556445 8.10138433,26.2556445 C9.66235919,28.9435193 12.1977347,28.1670701 13.194696,27.7167512 C13.3536941,26.5806949 13.8059793,25.8053256 14.3055342,25.3658057 C10.4197489,24.9219662 6.33414162,23.4122639 6.33414162,16.6715189 C6.33414162,14.7514541 7.01632954,13.1801975 8.1357623,11.9512696 C7.95527794,11.5063502 7.35473771,9.71695346 8.30765217,7.29581436 C8.30765217,7.29581436 9.77623623,6.82281751 13.1194942,9.09924982 C14.515025,8.70832548 16.0126155,8.51394322 17.5005372,8.50638391 C18.9873845,8.51394322 20.4839007,8.70832548 21.8815802,9.09924982 C25.2226895,6.82281751 26.6891249,7.29581436 26.6891249,7.29581436 C27.644188,9.71695346 27.0436477,11.5063502 26.8642377,11.9512696 C27.9858191,13.1801975 28.6626354,14.7514541 28.6626354,16.6715189 C28.6626354,23.4295424 24.5705823,24.9165667 20.6729795,25.351767 C21.3003775,25.8949574 21.8600939,26.9683795 21.8600939,28.6098297 C21.8600939,30.9607752 21.8386077,32.8581621 21.8386077,33.4348295 C21.8386077,33.9056666 22.1544553,34.4531766 23.0418368,34.2814723 C29.9904847,31.949965 35,25.3614861 35,17.591595 C35,7.87572145 27.1639707,0 17.4983885,0" id="Fill-3" fill="#161514"></path>
                        </g>
                    </g>
                </g>
            </g>
        </g>
    </g>
</svg>