<?xml version="1.0" encoding="UTF-8"?>
<svg width="35px" height="35px" viewBox="0 0 35 35" version="1.1" xmlns="http://www.w3.org/2000/svg" xmlns:xlink="http://www.w3.org/1999/xlink">
    <!-- Generator: Sketch 47.1 (45422) - http://www.bohemiancoding.com/sketch -->
    <title>logo instagram</title>
    <desc>Created with Sketch.</desc>
    <defs></defs>
    <g id="Page-1" stroke="none" stroke-width="1" fill="none" fill-rule="evenodd">
        <g id="desktop" transform="translate(-1088.000000, -7980.000000)">
            <g id="homepage" transform="translate(0.000000, -140.000000)">
                <g id="Footer-Copy-5" transform="translate(0.000000, 7781.000000)">
                    <g id="Join-us" transform="translate(458.000000, 251.000000)">
                        <g id="logos" transform="translate(0.000000, 88.000000)">
                            <g id="logo-instagram" transform="translate(630.000000, 0.000000)">
                                <path d="M17.4922004,0 C7.83154494,0 0,7.8314794 0,17.4922004 L0,17.4922004 C0,27.1381742 7.80814607,34.9606086 17.4484831,34.9844663 L17.4484831,34.9844663 L17.5358521,34.9844663 C27.1763202,34.9606086 34.9844663,27.1381742 34.9844663,17.4922004 L34.9844663,17.4922004 C34.9844663,7.8314794 27.1529213,0 17.4922004,0 Z" id="Fill-1" fill="#7354DD"></path>
                                <g id="logo-instgram" transform="translate(7.492233, 7.492233)" fill="#FFFFFF">
                                    <path d="M18.0072638,14.2957161 C18.0072638,16.3906624 16.3090761,18.0886583 14.2141298,18.0886583 L5.64972788,18.0886583 C3.55516523,18.0886583 1.85688157,16.3906624 1.85688157,14.2957161 L1.85688157,5.73131416 C1.85688157,3.63627199 3.55516523,1.93837195 5.64972788,1.93837195 L14.2141298,1.93837195 C16.3090761,1.93837195 18.0072638,3.63627199 18.0072638,5.73131416 L18.0072638,14.2957161 Z M14.1164027,0.0659250165 L5.74764676,0.0659250165 C2.59189659,0.0659250165 0.0337297473,2.62418777 0.0337297473,5.77993793 L0.0337297473,14.148598 C0.0337297473,17.3046359 2.59189659,19.8627068 5.74764676,19.8627068 L14.1164027,19.8627068 C17.272057,19.8627068 19.8304157,17.3046359 19.8304157,14.148598 L19.8304157,5.77993793 C19.8304157,2.62418777 17.272057,0.0659250165 14.1164027,0.0659250165 L14.1164027,0.0659250165 Z" id="Fill-1"></path>
                                    <path d="M9.93195762,13.3433231 C8.09298149,13.3433231 6.60223599,11.8525776 6.60223599,10.0135055 C6.60223599,8.17452941 8.09298149,6.68397572 9.93195762,6.68397572 C11.7710297,6.68397572 13.2616792,8.17452941 13.2616792,10.0135055 C13.2616792,11.8525776 11.7710297,13.3433231 9.93195762,13.3433231 M9.93195762,4.87703183 C7.09509118,4.87703183 4.79529209,7.1764473 4.79529209,10.0135055 C4.79529209,12.850372 7.09509118,15.150267 9.93195762,15.150267 C12.7688241,15.150267 15.068719,12.850372 15.068719,10.0135055 C15.068719,7.1764473 12.7688241,4.87703183 9.93195762,4.87703183" id="Fill-3"></path>
                                    <path d="M15.2398805,3.48497245 C14.5789999,3.48497245 14.0432753,4.02079303 14.0432753,4.68157767 C14.0432753,5.34236232 14.5789999,5.87799109 15.2398805,5.87799109 C15.9008569,5.87799109 16.4366775,5.34236232 16.4366775,4.68157767 C16.4366775,4.02079303 15.9008569,3.48497245 15.2398805,3.48497245" id="Fill-5"></path>
                                </g>
                            </g>
                        </g>
                    </g>
                </g>
            </g>
        </g>
    </g>
</svg>