<?xml version="1.0" encoding="UTF-8"?>
<svg width="35px" height="35px" viewBox="0 0 35 35" version="1.1" xmlns="http://www.w3.org/2000/svg" xmlns:xlink="http://www.w3.org/1999/xlink">
    <!-- Generator: Sketch 48.2 (47327) - http://www.bohemiancoding.com/sketch -->
    <title>Medium-icon Copy 5</title>
    <desc>Created with Sketch.</desc>
    <defs></defs>
    <g id="desktop" stroke="none" stroke-width="1" fill="none" fill-rule="evenodd" transform="translate(-667.000000, -8052.000000)">
        <g id="homepage" transform="translate(0.000000, -140.000000)">
            <g id="Footer-Copy-5" transform="translate(0.000000, 7781.000000)">
                <g id="Join-us" transform="translate(352.000000, 251.000000)">
                    <g id="logos" transform="translate(35.000000, 160.000000)">
                        <g id="Medium-icon-Copy-5" transform="translate(280.000000, 0.000000)">
                            <circle id="Oval-6" fill="#00AB6C" cx="17.5" cy="17.5" r="17.5"></circle>
                            <g id="icon" transform="translate(8.400000, 9.800000)" fill="#FFFFFF">
                                <path d="M18.78012,2.8043573 C18.77652,2.80158876 18.77364,2.79795506 18.76914,2.79587865 L18.76266,2.79276404 L13.08006,0.0614269663 C13.04172,0.0429123596 13.0014,0.0304539326 12.96054,0.0204179775 C12.90924,0.00778651685 12.85686,0 12.8043,0 C12.58668,0 12.37014,0.105031461 12.25278,0.288101124 L8.98128,5.39882472 L13.0869,11.8121461 L18.79758,2.89156629 C18.81648,2.86180449 18.80748,2.82512135 18.78012,2.8043573" id="Fill-53"></path>
                                <polyline id="Fill-54" points="7.1793 4.23465393 7.1793 10.0522202 12.55842 12.6376899 7.1793 4.23465393"></polyline>
                                <path d="M13.36662,13.0261506 L17.79444,15.1542921 C18.37062,15.4313191 18.83772,15.2373483 18.83772,14.7213618 L18.83772,4.47966966 L13.36662,13.0261506" id="Fill-55"></path>
                                <path d="M6.24546,2.81266292 L0.69552,0.145002247 C0.59526,0.0968988764 0.49986,0.074058427 0.41346,0.074058427 C0.17046,0.074058427 0,0.254878652 0,0.558206742 L0,12.0770607 C0,12.3854067 0.23472,12.7505079 0.52164,12.8884157 L5.4099,15.2378674 C5.53518,15.2980831 5.65452,15.3266337 5.76234,15.3266337 C6.06618,15.3266337 6.2793,15.1006517 6.2793,14.7213618 L6.2793,2.86509213 C6.2793,2.84294382 6.26616,2.82252584 6.24546,2.81266292" id="Fill-56"></path>
                            </g>
                        </g>
                    </g>
                </g>
            </g>
        </g>
    </g>
</svg>