<?xml version="1.0" encoding="UTF-8"?>
<svg width="35px" height="35px" viewBox="0 0 35 35" version="1.1" xmlns="http://www.w3.org/2000/svg" xmlns:xlink="http://www.w3.org/1999/xlink">
    <!-- Generator: Sketch 48.2 (47327) - http://www.bohemiancoding.com/sketch -->
    <title>Reddit-icon Copy 5</title>
    <desc>Created with Sketch.</desc>
    <defs></defs>
    <g id="desktop" stroke="none" stroke-width="1" fill="none" fill-rule="evenodd" transform="translate(-387.000000, -8052.000000)">
        <g id="homepage" transform="translate(0.000000, -140.000000)">
            <g id="Footer-Copy-5" transform="translate(0.000000, 7781.000000)">
                <g id="Join-us" transform="translate(352.000000, 251.000000)">
                    <g id="logos" transform="translate(35.000000, 160.000000)">
                        <g id="Reddit-icon-Copy-5">
                            <circle id="Oval" fill="#FF4500" cx="17.5043478" cy="17.5043478" r="17.4913043"></circle>
                            <path d="M29.1695652,17.5043478 C29.1173913,16.0956522 27.9347826,14.9956522 26.5217391,15.0434783 C25.8956522,15.0652174 25.3,15.3217391 24.8478261,15.7521739 C22.8565217,14.3956522 20.5173913,13.6521739 18.1130435,13.6 L19.2478261,8.14347826 L22.9913043,8.93043478 C23.0956522,9.89130435 23.9565217,10.5869565 24.9173913,10.4826087 C25.8782609,10.3782609 26.573913,9.5173913 26.4695652,8.55652174 C26.3652174,7.59565217 25.5043478,6.9 24.5434783,7.00434783 C23.9913043,7.06086957 23.4956522,7.3826087 23.2217391,7.86086957 L18.9347826,7.00434783 C18.6434783,6.93913043 18.3521739,7.12173913 18.2869565,7.4173913 L18.2869565,7.42608696 L16.9956522,13.4956522 C14.5608696,13.5347826 12.1913043,14.2826087 10.173913,15.6478261 C9.14782609,14.6826087 7.53043478,14.7304348 6.56521739,15.7608696 C5.6,16.7869565 5.64782609,18.4043478 6.67826087,19.3695652 C6.87826087,19.5565217 7.10869565,19.7173913 7.36521739,19.8304348 C7.34782609,20.0869565 7.34782609,20.3434783 7.36521739,20.6 C7.36521739,24.5173913 11.9304348,27.7043478 17.5608696,27.7043478 C23.1913043,27.7043478 27.7565217,24.5217391 27.7565217,20.6 C27.773913,20.3434783 27.773913,20.0869565 27.7565217,19.8304348 C28.6347826,19.3913043 29.1869565,18.4869565 29.1695652,17.5043478 L29.1695652,17.5043478 Z M11.6782609,19.2565217 C11.6782609,18.2913043 12.4652174,17.5043478 13.4304348,17.5043478 C14.3956522,17.5043478 15.1826087,18.2913043 15.1826087,19.2565217 C15.1826087,20.2217391 14.3956522,21.0086957 13.4304348,21.0086957 C12.4608696,21 11.6782609,20.2217391 11.6782609,19.2565217 L11.6782609,19.2565217 Z M21.8391304,24.0652174 C20.5956522,25 19.073913,25.4782609 17.5173913,25.4130435 C15.9608696,25.4782609 14.4391304,25 13.1956522,24.0652174 C13.0304348,23.8652174 13.0608696,23.5652174 13.2608696,23.4 C13.4347826,23.2565217 13.6826087,23.2565217 13.8608696,23.4 C14.9130435,24.1695652 16.1956522,24.5608696 17.5,24.5 C18.8043478,24.5695652 20.0913043,24.1956522 21.1565217,23.4347826 C21.3478261,23.2478261 21.6608696,23.2521739 21.8478261,23.4434783 C22.0347826,23.6347826 22.0304348,23.9478261 21.8391304,24.1347826 L21.8391304,24.1347826 L21.8391304,24.0652174 L21.8391304,24.0652174 L21.8391304,24.0652174 Z M21.526087,21.0695652 C20.5608696,21.0695652 19.773913,20.2826087 19.773913,19.3173913 C19.773913,18.3521739 20.5608696,17.5652174 21.526087,17.5652174 C22.4913043,17.5652174 23.2782609,18.3521739 23.2782609,19.3173913 C23.3173913,20.2826087 22.5652174,21.0956522 21.6,21.1347826 L21.5130435,21.1347826 L21.526087,21.0695652 L21.526087,21.0695652 Z" id="Shape" fill="#FFFFFF"></path>
                        </g>
                    </g>
                </g>
            </g>
        </g>
    </g>
</svg>