<?xml version="1.0" encoding="utf-8"?>
<!-- Generator: Adobe Illustrator 19.2.0, SVG Export Plug-In . SVG Version: 6.00 Build 0)  -->
<svg version="1.1" id="Layer_1" xmlns="http://www.w3.org/2000/svg" xmlns:xlink="http://www.w3.org/1999/xlink" x="0px" y="0px"
	 viewBox="0 0 36 35" style="enable-background:new 0 0 36 35;" xml:space="preserve">
<style type="text/css">
	.st0{fill:#FFFFFF;}
	.st1{fill:#DFA22F;}
	.st2{fill:#3CB187;}
	.st3{fill:#CE1E5B;}
	.st4{fill:#392538;}
	.st5{fill:#BB242A;}
	.st6{fill:#72C5CD;}
	.st7{fill:#248C73;}
	.st8{fill:#62803A;}
	.st9{fill:#443642;}
</style>
<title>logo steemit</title>
<desc>Created with Sketch.</desc>
<g>
	<polygon class="st0" points="23.8,6.2 23.8,6.2 6.7,11.7 12.3,28.8 29.3,23.3 	"/>
	<path class="st1" d="M29.3,23.3L29.3,23.3L29.3,23.3l5.9-1.9c0.3-1.2,0.4-2.5,0.4-3.8c0-5.2-2.3-10-6-13.2l-5.9,1.9L29.3,23.3z"/>
	<path class="st2" d="M12.3,28.8L12.3,28.8l-5.6-17l0,0l0,0c-2,0.7-4,1.3-5.9,1.9c-0.3,1.3-0.4,2.5-0.4,3.9c0,5.3,2.3,10,6,13.2
		L12.3,28.8L12.3,28.8z"/>
	<path class="st3" d="M12.3,28.8l1.9,5.9c1.2,0.3,2.5,0.4,3.8,0.4c5.3,0,10-2.3,13.2-6l-1.9-5.9L12.3,28.8z"/>
	<polygon class="st3" points="29.3,23.3 31.2,29.1 31.2,29.1 	"/>
	<polygon class="st3" points="12.3,28.8 14.2,34.6 14.2,34.6 	"/>
	<polygon class="st4" points="12.3,28.8 12.2,28.8 6.4,30.7 6.4,30.7 	"/>
	<path class="st4" d="M6.4,30.7c2.2,1.9,4.8,3.3,7.8,4l-1.9-5.9L6.4,30.7z"/>
	<polygon class="st5" points="29.3,23.3 35.1,21.3 35.1,21.3 	"/>
	<path class="st5" d="M29.3,23.3l1.9,5.9c1.9-2.2,3.3-4.8,4-7.8L29.3,23.3z"/>
	<path class="st6" d="M23.8,6.2l-1.9-5.9c-1.3-0.3-2.5-0.4-3.9-0.4c-5.2,0-10,2.3-13.2,6l1.9,5.9L23.8,6.2z"/>
	<path class="st6" d="M6.7,11.7L4.8,5.9l0,0C5.4,7.8,6.1,9.7,6.7,11.7L6.7,11.7z"/>
	<path class="st7" d="M6.7,11.7l-5.9,1.9l0,0C2.8,13,4.7,12.4,6.7,11.7L6.7,11.7z"/>
	<path class="st7" d="M6.7,11.7c-0.7-2-1.3-4-1.9-5.8c-1.9,2.2-3.3,4.8-4,7.8L6.7,11.7z"/>
	<ellipse class="st8" cx="23.8" cy="6.2" rx="0" ry="0"/>
	<polygon class="st8" points="23.8,6.2 23.8,6.2 29.6,4.3 29.6,4.3 	"/>
	<polygon class="st8" points="23.8,6.2 21.8,0.4 21.8,0.4 	"/>
	<path class="st8" d="M21.8,0.4l1.9,5.9l5.9-1.9C27.4,2.4,24.8,1,21.8,0.4z"/>
</g>
<path class="st9" d="M12.2,14.5c0-2.8,2-4.8,5.8-4.8c2.3,0,4.1,0.7,5.1,1.4c0.1,0.1,0.4,0.4,0.2,0.8c-0.2,0.5-0.6,1.2-0.8,1.7
	C22.4,14,22,14,21.8,13.9c-0.7-0.4-1.9-1-3-1.1c-0.3,0-0.6,0-0.8,0c-0.9,0-1.8,0.4-2,1.1c-0.1,0.1-0.1,0.3-0.1,0.4
	c0,0.9,1.3,1.3,2.9,1.6c3,0.5,5.3,1.4,5.3,4.5c0,2.6-2.1,5-6.2,4.9c-2.7-0.1-4.6-0.9-5.6-1.9c0,0-0.4-0.4-0.2-0.9
	c0.2-0.6,0.6-1.3,0.9-1.7c0.2-0.2,0.6-0.3,0.9-0.1c0.8,0.5,2.2,1.4,3.8,1.4c0.1,0,0.2,0,0.4,0c1.4,0,2.3-0.6,2.3-1.5
	c0-0.8-1.2-1.3-3-1.6C14.5,18.4,12.2,17.5,12.2,14.5"/>
</svg>
