<?xml version="1.0" encoding="UTF-8"?>
<svg width="36px" height="35px" viewBox="0 0 36 35" version="1.1" xmlns="http://www.w3.org/2000/svg" xmlns:xlink="http://www.w3.org/1999/xlink">
    <!-- Generator: Sketch 47.1 (45422) - http://www.bohemiancoding.com/sketch -->
    <title>logo steemit</title>
    <desc>Created with Sketch.</desc>
    <defs></defs>
    <g id="Page-1" stroke="none" stroke-width="1" fill="none" fill-rule="evenodd">
        <g id="desktop" transform="translate(-1052.000000, -7980.000000)">
            <g id="homepage" transform="translate(0.000000, -140.000000)">
                <g id="Footer-Copy-5" transform="translate(0.000000, 7781.000000)">
                    <g id="Join-us" transform="translate(352.000000, 251.000000)">
                        <g id="logos" transform="translate(0.500000, 88.000000)">
                            <g id="logo-steemit" transform="translate(700.000000, 0.000000)">
                                <g id="v2">
                                    <path d="M17.4922004,0 C7.83154494,0 0,7.8314794 0,17.4922004 L0,17.4922004 C0,27.1381742 7.80814607,34.9606086 17.4484831,34.9844663 L17.4484831,34.9844663 L17.5358521,34.9844663 C27.1763202,34.9606086 34.9844663,27.1381742 34.9844663,17.4922004 L34.9844663,17.4922004 C34.9844663,7.8314794 27.1529213,0 17.4922004,0 Z" id="Fill-1" fill="#06D4A7"></path>
                                    <path d="M12.5744322,24.5007978 C14.2973622,25.2583157 16.0245242,25.5790618 17.8298008,25.5831174 C20.2263152,25.5885836 22.3481059,24.9282241 23.9908054,23.1042564 C26.0032709,20.8694375 26.0738033,17.3313564 24.1824771,15.0085483 C22.294325,12.6899722 18.8306555,12.0664659 16.2131984,13.5740958 C13.5846324,15.0878973 12.4413023,18.2484538 13.6001495,21.1009601 C14.0185829,22.1310857 13.7754225,22.908529 13.1750155,23.6993735 C12.9854597,23.9494108 12.7985489,24.2015641 12.5744322,24.5007978 M11.6486945,22.3611977 C9.42921645,21.163205 7.95403144,19.4452122 7.38642201,17.0497558 C6.3369,12.6197925 9.28727001,7.99322017 13.816155,7.05143639 C17.6229646,6.25953394 21.2746029,6.92535974 24.9625654,8.5289137 C23.795607,9.17693006 22.7041182,9.75794065 22.2832161,10.9880256 C23.1024499,11.5265404 23.943725,11.9596093 24.6430537,12.5586057 C29.6878831,16.8799491 27.9993376,24.8971899 21.4706829,26.9824801 C16.9529068,28.4255728 12.6964532,27.0429616 8.48637468,24.9238158 C9.8904983,24.3669626 11.0581621,23.7773118 11.6486945,22.3611977" fill="#FFFFFF"></path>
                                </g>
                                <g id="v1">
                                    <path d="M17.4922004,0 C7.83154494,0 0,7.8314794 0,17.4922004 L0,17.4922004 C0,27.1381742 7.80814607,34.9606086 17.4484831,34.9844663 L17.4484831,34.9844663 L17.5358521,34.9844663 C27.1763202,34.9606086 34.9844663,27.1381742 34.9844663,17.4922004 L34.9844663,17.4922004 C34.9844663,7.8314794 27.1529213,0 17.4922004,0 Z" id="Fill-1" fill="#1A5099"></path>
                                    <path d="M20.99039,21.0209945 C21.1534219,21.7067584 21.078918,22.3336862 20.7096858,22.934428 C19.8939785,24.2615822 18.8811647,25.4151863 17.6778184,26.4021429 C17.57176,26.4890275 17.449267,26.5592583 17.3264452,26.62171 C17.1793001,26.6968712 17.0969077,26.6437325 17.0992085,26.4002803 C17.1511421,26.2209233 17.2312337,25.9752798 17.293028,25.7251441 C17.4525539,25.0810147 17.6319109,24.4400627 17.7516648,23.7884829 C17.9148063,22.9024352 17.6940339,22.0617472 17.3243635,21.2607215 C16.728552,19.9695045 16.1188258,18.6847517 15.5119484,17.3985747 C14.8380174,15.9705116 14.1472136,14.5494607 13.6863855,13.03276 C13.5118493,12.4579849 13.3542957,11.8756499 13.4121457,11.2661429 C13.4715296,10.6402012 13.7669154,10.1054171 14.1142347,9.59955802 C14.7099366,8.73180758 15.4351437,7.98523542 16.2713396,7.34647468 C16.3374069,7.29607504 16.5316647,7.17215764 16.6158102,7.14345176 C16.7721587,7.09009387 16.8452381,7.1214293 16.8430469,7.36488151 C16.839979,7.37550926 16.8377878,7.41889678 16.8368017,7.42799063 C16.7831151,7.9418479 16.7090495,8.45373301 16.6587594,8.96802853 C16.5256386,10.3327633 16.8426086,11.5988901 17.4509104,12.8206433 C18.2246546,14.3744863 18.9625711,15.9466266 19.6928182,17.5213964 C20.2171936,18.6521015 20.7000442,19.7997891 20.99039,21.0209945 Z M13.9785829,20.1024281 C14.107102,20.6425808 14.0483755,21.1364973 13.7574819,21.6095966 C13.1149959,22.654951 12.3172572,23.563569 11.3695247,24.3409288 C11.285927,24.4094066 11.1894007,24.4645175 11.0926553,24.5138215 C10.9768457,24.5729863 10.9119836,24.5312422 10.913627,24.3393949 C10.9546041,24.1981663 11.0177132,24.0046755 11.0663599,23.807569 C11.1920303,23.3003952 11.3332589,22.7955222 11.4277034,22.2823223 C11.556113,21.5842872 11.3822342,20.9221893 11.0911214,20.2912076 C10.6217473,19.2742304 10.1415263,18.2622931 9.66338709,17.2492602 C9.1326569,16.1244716 8.58866941,15.0051612 8.22557282,13.81058 C8.08806944,13.3577501 7.96404248,12.8992229 8.00962129,12.4191115 C8.05640531,11.9260715 8.28901064,11.5049057 8.5624835,11.1064198 C9.0318576,10.4229568 9.60301708,9.83492437 10.261609,9.33180442 C10.3136521,9.29214209 10.4666041,9.19452016 10.5330001,9.17184032 C10.656041,9.12987714 10.7136719,9.15452914 10.7119189,9.34637649 C10.7095085,9.35459382 10.7077554,9.38877793 10.707098,9.39600919 C10.6646966,9.80074026 10.6064083,10.2039374 10.566746,10.6089972 C10.4618928,11.683934 10.7115902,12.6811896 11.1908251,13.6434942 C11.800113,14.8673291 12.381462,16.1056265 12.9565657,17.3460056 C13.3696237,18.2365455 13.7499219,19.1405618 13.9785829,20.1024281 Z M26.4339462,20.1429779 C26.5625749,20.6831306 26.5037388,21.1770471 26.2128452,21.6501464 C25.5704688,22.6955008 24.7727301,23.6041188 23.8249976,24.3814786 C23.7412903,24.4498468 23.644764,24.5050673 23.5480186,24.5543713 C23.4323186,24.6135361 23.3674564,24.571792 23.3690999,24.3799447 C23.4099674,24.2387161 23.4731861,24.0451157 23.5217232,23.8481188 C23.6475032,23.340945 23.7887317,22.8361816 23.8831763,22.3228721 C24.0115858,21.624837 23.8375975,20.9627391 23.5464847,20.3317574 C23.0772202,19.3147802 22.5968897,18.3028429 22.1187504,17.28981 C21.5880202,16.1650214 21.0441423,15.045711 20.6809361,13.8511298 C20.5435423,13.3982999 20.4194058,12.9397727 20.4649846,12.4596613 C20.5118782,11.9666213 20.7444835,11.5454555 21.0179564,11.1469696 C21.4873305,10.4635066 22.0583804,9.87547417 22.7170819,9.37235422 C22.769125,9.33269189 22.9220769,9.23506997 22.988473,9.21239013 C23.1115139,9.17042694 23.1690352,9.19507894 23.1673917,9.38692629 C23.1649813,9.39514363 23.1632283,9.42932774 23.1624613,9.43655899 C23.1200599,9.84129007 23.0618812,10.2444872 23.0222188,10.649547 C22.9173657,11.7244838 23.1669535,12.7217394 23.6462979,13.684044 C24.2554763,14.9078789 24.8369348,16.1461763 25.411929,17.3865554 C25.8250966,18.2770953 26.2053948,19.1811116 26.4339462,20.1429779 Z" fill="#FFFFFF"></path>
                                </g>
                            </g>
                        </g>
                    </g>
                </g>
            </g>
        </g>
    </g>
</svg>