<?xml version="1.0" encoding="UTF-8"?>
<svg width="35px" height="35px" viewBox="0 0 35 35" version="1.1" xmlns="http://www.w3.org/2000/svg" xmlns:xlink="http://www.w3.org/1999/xlink">
    <!-- Generator: Sketch 48.2 (47327) - http://www.bohemiancoding.com/sketch -->
    <title>Twitter-Icon Copy 15</title>
    <desc>Created with Sketch.</desc>
    <defs>
        <polygon id="path-1" points="0.00514705882 34.3137255 34.3137255 34.3137255 34.3137255 0.00343137255 0.00514705882 0.00343137255"></polygon>
    </defs>
    <g id="desktop" stroke="none" stroke-width="1" fill="none" fill-rule="evenodd" transform="translate(-457.000000, -8052.000000)">
        <g id="homepage" transform="translate(0.000000, -140.000000)">
            <g id="Footer-Copy-5" transform="translate(0.000000, 7781.000000)">
                <g id="Join-us" transform="translate(352.000000, 251.000000)">
                    <g id="logos" transform="translate(35.000000, 160.000000)">
                        <g id="Twitter-Icon-Copy-15" transform="translate(70.000000, 0.000000)">
                            <g id="Group-3">
                                <mask id="mask-2" fill="white">
                                    <use xlink:href="#path-1"></use>
                                </mask>
                                <g id="Clip-2"></g>
                                <path d="M34.3137255,17.1568627 C34.3137255,26.6323407 26.6323407,34.3137255 17.1568627,34.3137255 C7.6813848,34.3137255 0,26.6323407 0,17.1568627 C0,7.6813848 7.6813848,0 17.1568627,0 C26.6323407,0 34.3137255,7.6813848 34.3137255,17.1568627" id="Fill-1" fill="#4591C2" mask="url(#mask-2)"></path>
                            </g>
                            <path d="M13.4171814,25.3486642 C21.0247917,25.3486642 25.1849877,19.0460049 25.1849877,13.5808578 C25.1849877,13.4017402 25.1813848,13.2234804 25.1732353,13.0461642 C25.980723,12.462402 26.6826961,11.7340074 27.2365196,10.9046446 C26.4954289,11.233799 25.6978922,11.455723 24.8613235,11.5557475 C25.7152206,11.0437868 26.3707843,10.2335539 26.6800368,9.2678799 C25.8806985,9.74158088 24.9959191,10.0862623 24.0538358,10.2717279 C23.2990196,9.46784314 22.2242279,8.96506127 21.0347426,8.96506127 C18.7504779,8.96506127 16.8981373,10.8173162 16.8981373,13.100723 C16.8981373,13.4253309 16.9345098,13.7409314 17.0054534,14.04375 C13.568076,13.8709804 10.5199877,12.2250368 8.48029412,9.72253676 C8.12480392,10.3335784 7.92012255,11.0437868 7.92012255,11.8012623 C7.92012255,13.2362623 8.65040441,14.5029534 9.76071078,15.2440441 C9.08232843,15.2231985 8.4448652,15.0367034 7.88743873,14.7266789 C7.8864951,14.7439216 7.8864951,14.76125 7.8864951,14.7793505 C7.8864951,16.7826716 9.31240196,18.454951 11.2047181,18.8342034 C10.8573775,18.9287377 10.4917647,18.9796936 10.1143995,18.9796936 C9.84795343,18.9796936 9.58879902,18.9532721 9.33693627,18.9050613 C9.86348039,20.5482598 11.3902696,21.7440931 13.2007475,21.7777206 C11.7848775,22.8870833 10.0016789,23.548223 8.06381127,23.548223 C7.73011029,23.548223 7.40095588,23.5290931 7.07720588,23.4909191 C8.90775735,24.6639338 11.0811029,25.3486642 13.4171814,25.3486642" id="Fill-4" fill="#FFFFFE"></path>
                        </g>
                    </g>
                </g>
            </g>
        </g>
    </g>
</svg>